<svg xmlns="http://www.w3.org/2000/svg" xmlns:xlink="http://www.w3.org/1999/xlink" xmlns:lucid="lucid" width="2900" height="1705"><g transform="translate(-200 -20)" lucid:page-tab-id="-2fwysw4JIA0"><path d="M2720 469.77c0-3.3 2.7-6 6-6h348c3.3 0 6 2.7 6 6v287c0 3.32-2.7 6-6 6h-348c-3.3 0-6-2.68-6-6z" fill="#fff"/><path d="M2720 540.77h360v37h-360zM2720 614.77h360v37h-360zM2720 688.77h360v37h-360z" fill="#e6e6e6"/><path d="M2720 463.77h360v40h-360z" fill="#ccc"/><path d="M2720 469.77c0-3.3 2.7-6 6-6h348c3.3 0 6 2.7 6 6v287c0 3.32-2.7 6-6 6h-348c-3.3 0-6-2.68-6-6zM2720 503.77h360M2780 503.77v259M2912.74 503.77v259" stroke="#5e5e5e" stroke-width="3" fill="none"/><use xlink:href="#a" transform="matrix(1,0,0,1,2730,463.7717105263157) translate(148.42592592592592 24.444444444444443)"/><use xlink:href="#b" transform="matrix(1,0,0,1,2725,506.2717105263157) translate(10.185185185185187 20.444444444444443)"/><use xlink:href="#c" transform="matrix(1,0,0,1,2785,506.2717105263157) translate(0 20.444444444444443)"/><use xlink:href="#d" transform="matrix(1,0,0,1,2917.7373211963586,506.2717105263157) translate(0 20.444444444444443)"/><use xlink:href="#e" transform="matrix(1,0,0,1,2785,543.2717105263157) translate(0 20.444444444444443)"/><use xlink:href="#f" transform="matrix(1,0,0,1,2917.7373211963586,543.2717105263157) translate(0 20.444444444444443)"/><use xlink:href="#g" transform="matrix(1,0,0,1,2785,580.2717105263157) translate(0 20.444444444444443)"/><use xlink:href="#f" transform="matrix(1,0,0,1,2917.7373211963586,580.2717105263157) translate(0 20.444444444444443)"/><use xlink:href="#h" transform="matrix(1,0,0,1,2785,617.2717105263157) translate(0 20.444444444444443)"/><use xlink:href="#f" transform="matrix(1,0,0,1,2917.7373211963586,617.2717105263157) translate(0 20.444444444444443)"/><use xlink:href="#i" transform="matrix(1,0,0,1,2785,654.2717105263157) translate(0 20.444444444444443)"/><use xlink:href="#j" transform="matrix(1,0,0,1,2917.7373211963586,654.2717105263157) translate(0 20.444444444444443)"/><use xlink:href="#k" transform="matrix(1,0,0,1,2785,691.2717105263157) translate(0 20.444444444444443)"/><use xlink:href="#l" transform="matrix(1,0,0,1,2917.7373211963586,691.2717105263157) translate(0 20.444444444444443)"/><use xlink:href="#m" transform="matrix(1,0,0,1,2785,728.2717105263157) translate(0 20.444444444444443)"/><use xlink:href="#l" transform="matrix(1,0,0,1,2917.7373211963586,728.2717105263157) translate(0 20.444444444444443)"/><path d="M820 46c0-3.3 2.7-6 6-6h368c3.3 0 6 2.7 6 6v324c0 3.3-2.7 6-6 6H826c-3.3 0-6-2.7-6-6z" fill="#fff"/><path d="M820 117h380v37H820zM820 191h380v37H820zM820 265h380v37H820zM820 339h380v37H820z" fill="#e6e6e6"/><path d="M820 40h380v40H820z" fill="#ccc"/><path d="M820 46c0-3.3 2.7-6 6-6h368c3.3 0 6 2.7 6 6v324c0 3.3-2.7 6-6 6H826c-3.3 0-6-2.7-6-6zM820 80h380M880 80v296M1017.16 80v296" stroke="#5e5e5e" stroke-width="3" fill="none"/><use xlink:href="#n" transform="matrix(1,0,0,1,830,40) translate(141.1172839506173 24.444444444444443)"/><use xlink:href="#b" transform="matrix(1,0,0,1,825,82.5) translate(10.185185185185187 20.444444444444443)"/><use xlink:href="#c" transform="matrix(1,0,0,1,885,82.5) translate(0 20.444444444444443)"/><use xlink:href="#d" transform="matrix(1,0,0,1,1022.1602080624189,82.5) translate(0 20.444444444444443)"/><use xlink:href="#o" transform="matrix(1,0,0,1,885,119.5) translate(0 20.444444444444443)"/><use xlink:href="#f" transform="matrix(1,0,0,1,1022.1602080624189,119.5) translate(0 20.444444444444443)"/><use xlink:href="#p" transform="matrix(1,0,0,1,885,156.5) translate(0 20.444444444444443)"/><use xlink:href="#q" transform="matrix(1,0,0,1,1022.1602080624189,156.5) translate(0 20.444444444444443)"/><use xlink:href="#r" transform="matrix(1,0,0,1,1022.1602080624189,156.5) translate(123.20987654320987 20.444444444444443)"/><use xlink:href="#s" transform="matrix(1,0,0,1,885,193.5) translate(0 20.444444444444443)"/><use xlink:href="#t" transform="matrix(1,0,0,1,1022.1602080624189,193.5) translate(0 20.444444444444443)"/><use xlink:href="#i" transform="matrix(1,0,0,1,885,230.5) translate(0 20.444444444444443)"/><use xlink:href="#u" transform="matrix(1,0,0,1,1022.1602080624189,230.5) translate(0 20.444444444444443)"/><use xlink:href="#k" transform="matrix(1,0,0,1,885,267.5) translate(0 20.444444444444443)"/><use xlink:href="#l" transform="matrix(1,0,0,1,1022.1602080624189,267.5) translate(0 20.444444444444443)"/><use xlink:href="#m" transform="matrix(1,0,0,1,885,304.5) translate(0 20.444444444444443)"/><use xlink:href="#l" transform="matrix(1,0,0,1,1022.1602080624189,304.5) translate(0 20.444444444444443)"/><use xlink:href="#v" transform="matrix(1,0,0,1,825,341.5) translate(10.833333333333336 20.444444444444443)"/><use xlink:href="#a" transform="matrix(1,0,0,1,885,341.5) translate(0 20.444444444444443)"/><use xlink:href="#w" transform="matrix(1,0,0,1,1022.1602080624189,341.5) translate(0 20.444444444444443)"/><path d="M620 1185c0-3.3 2.7-6 6-6h368c3.3 0 6 2.7 6 6v176c0 3.3-2.7 6-6 6H626c-3.3 0-6-2.7-6-6z" fill="#fff"/><path d="M620 1256h380v37H620zM620 1330h380v37H620z" fill="#e6e6e6"/><path d="M620 1179h380v40H620z" fill="#ccc"/><path d="M620 1185c0-3.3 2.7-6 6-6h368c3.3 0 6 2.7 6 6v176c0 3.3-2.7 6-6 6H626c-3.3 0-6-2.7-6-6zM620 1219h380M680 1219v148M808.3 1219v148" stroke="#5e5e5e" stroke-width="3" fill="none"/><use xlink:href="#x" transform="matrix(1,0,0,1,630,1179) translate(153.98765432098764 24.444444444444443)"/><use xlink:href="#b" transform="matrix(1,0,0,1,625,1221.5) translate(10.185185185185187 20.444444444444443)"/><use xlink:href="#c" transform="matrix(1,0,0,1,685,1221.5) translate(0 20.444444444444443)"/><use xlink:href="#d" transform="matrix(1,0,0,1,813.3062418725617,1221.5) translate(0 20.444444444444443)"/><use xlink:href="#y" transform="matrix(1,0,0,1,685,1258.5) translate(0 20.444444444444443)"/><use xlink:href="#f" transform="matrix(1,0,0,1,813.3062418725617,1258.5) translate(0 20.444444444444443)"/><use xlink:href="#z" transform="matrix(1,0,0,1,685,1295.5) translate(0 20.444444444444443)"/><use xlink:href="#A" transform="matrix(1,0,0,1,813.3062418725617,1295.5) translate(0 20.444444444444443)"/><use xlink:href="#p" transform="matrix(1,0,0,1,685,1332.5) translate(0 20.444444444444443)"/><use xlink:href="#w" transform="matrix(1,0,0,1,813.3062418725617,1332.5) translate(0 20.444444444444443)"/><path d="M800 545c0-3.3 2.7-6 6-6h428c3.3 0 6 2.7 6 6v287c0 3.3-2.7 6-6 6H806c-3.3 0-6-2.7-6-6z" fill="#fff"/><path d="M800 616h440v37H800zM800 690h440v37H800zM800 764h440v37H800z" fill="#e6e6e6"/><path d="M800 539h440v40H800z" fill="#ccc"/><path d="M800 545c0-3.3 2.7-6 6-6h428c3.3 0 6 2.7 6 6v287c0 3.3-2.7 6-6 6H806c-3.3 0-6-2.7-6-6zM800 579h440M860 579v259M1050 579v259" stroke="#5e5e5e" stroke-width="3" fill="none"/><use xlink:href="#B" transform="matrix(1,0,0,1,810,539) translate(190.92592592592592 24.444444444444443)"/><use xlink:href="#b" transform="matrix(1,0,0,1,805,581.5) translate(10.185185185185187 20.444444444444443)"/><use xlink:href="#c" transform="matrix(1,0,0,1,865,581.5) translate(0 20.444444444444443)"/><use xlink:href="#d" transform="matrix(1,0,0,1,1055,581.5) translate(0 20.444444444444443)"/><use xlink:href="#y" transform="matrix(1,0,0,1,865,618.5) translate(0 20.444444444444443)"/><use xlink:href="#f" transform="matrix(1,0,0,1,1055,618.5) translate(0 20.444444444444443)"/><use xlink:href="#C" transform="matrix(1,0,0,1,865,655.5) translate(0 20.444444444444443)"/><use xlink:href="#l" transform="matrix(1,0,0,1,1055,655.5) translate(0 20.444444444444443)"/><use xlink:href="#D" transform="matrix(1,0,0,1,865,692.5) translate(0 20.444444444444443)"/><use xlink:href="#l" transform="matrix(1,0,0,1,1055,692.5) translate(0 20.444444444444443)"/><use xlink:href="#v" transform="matrix(1,0,0,1,805,729.5) translate(10.833333333333336 20.444444444444443)"/><use xlink:href="#E" transform="matrix(1,0,0,1,865,729.5) translate(0 20.444444444444443)"/><use xlink:href="#w" transform="matrix(1,0,0,1,1055,729.5) translate(0 20.444444444444443)"/><use xlink:href="#v" transform="matrix(1,0,0,1,805,766.5) translate(10.833333333333336 20.444444444444443)"/><use xlink:href="#F" transform="matrix(1,0,0,1,865,766.5) translate(0 20.444444444444443)"/><use xlink:href="#w" transform="matrix(1,0,0,1,1055,766.5) translate(0 20.444444444444443)"/><use xlink:href="#G" transform="matrix(1,0,0,1,805,803.5) translate(10.833333333333336 20.444444444444443)"/><use xlink:href="#H" transform="matrix(1,0,0,1,865,803.5) translate(0 20.444444444444443)"/><use xlink:href="#I" transform="matrix(1,0,0,1,1055,803.5) translate(0 20.444444444444443)"/><path d="M220 505c0-3.3 2.7-6 6-6h348c3.3 0 6 2.7 6 6v213c0 3.3-2.7 6-6 6H226c-3.3 0-6-2.7-6-6z" fill="#fff"/><path d="M220 576h360v37H220zM220 650h360v37H220z" fill="#e6e6e6"/><path d="M220 499h360v40H220z" fill="#ccc"/><path d="M220 505c0-3.3 2.7-6 6-6h348c3.3 0 6 2.7 6 6v213c0 3.3-2.7 6-6 6H226c-3.3 0-6-2.7-6-6zM220 539h360M280 539v185M383.47 539v185" stroke="#5e5e5e" stroke-width="3" fill="none"/><use xlink:href="#J" transform="matrix(1,0,0,1,230,499) translate(126.23456790123457 24.444444444444443)"/><use xlink:href="#b" transform="matrix(1,0,0,1,225,541.5) translate(10.185185185185187 20.444444444444443)"/><use xlink:href="#c" transform="matrix(1,0,0,1,285,541.5) translate(0 20.444444444444443)"/><use xlink:href="#d" transform="matrix(1,0,0,1,388.465539661898,541.5) translate(0 20.444444444444443)"/><use xlink:href="#y" transform="matrix(1,0,0,1,285,578.5) translate(0 20.444444444444443)"/><use xlink:href="#f" transform="matrix(1,0,0,1,388.465539661898,578.5) translate(0 20.444444444444443)"/><use xlink:href="#K" transform="matrix(1,0,0,1,285,615.5) translate(0 20.444444444444443)"/><use xlink:href="#f" transform="matrix(1,0,0,1,388.465539661898,615.5) translate(0 20.444444444444443)"/><use xlink:href="#C" transform="matrix(1,0,0,1,285,652.5) translate(0 20.444444444444443)"/><use xlink:href="#l" transform="matrix(1,0,0,1,388.465539661898,652.5) translate(0 20.444444444444443)"/><use xlink:href="#D" transform="matrix(1,0,0,1,285,689.5) translate(0 20.444444444444443)"/><use xlink:href="#l" transform="matrix(1,0,0,1,388.465539661898,689.5) translate(0 20.444444444444443)"/><path d="M620 1486c0-3.3 2.7-6 6-6h368c3.3 0 6 2.7 6 6v213c0 3.3-2.7 6-6 6H626c-3.3 0-6-2.7-6-6z" fill="#fff"/><path d="M620 1557h380v37H620zM620 1631h380v37H620z" fill="#e6e6e6"/><path d="M620 1480h380v40H620z" fill="#ccc"/><path d="M620 1486c0-3.3 2.7-6 6-6h368c3.3 0 6 2.7 6 6v213c0 3.3-2.7 6-6 6H626c-3.3 0-6-2.7-6-6zM620 1520h380M680 1520v185M808.3 1520v185" stroke="#5e5e5e" stroke-width="3" fill="none"/><use xlink:href="#L" transform="matrix(1,0,0,1,630,1480) translate(129.97530864197532 24.444444444444443)"/><use xlink:href="#b" transform="matrix(1,0,0,1,625,1522.5) translate(10.185185185185187 20.444444444444443)"/><use xlink:href="#c" transform="matrix(1,0,0,1,685,1522.5) translate(0 20.444444444444443)"/><use xlink:href="#d" transform="matrix(1,0,0,1,813.3062418725617,1522.5) translate(0 20.444444444444443)"/><use xlink:href="#y" transform="matrix(1,0,0,1,685,1559.5) translate(0 20.444444444444443)"/><use xlink:href="#f" transform="matrix(1,0,0,1,813.3062418725617,1559.5) translate(0 20.444444444444443)"/><use xlink:href="#M" transform="matrix(1,0,0,1,685,1596.5) translate(0 20.444444444444443)"/><use xlink:href="#f" transform="matrix(1,0,0,1,813.3062418725617,1596.5) translate(0 20.444444444444443)"/><use xlink:href="#N" transform="matrix(1,0,0,1,685,1633.5) translate(0 20.444444444444443)"/><use xlink:href="#O" transform="matrix(1,0,0,1,813.3062418725617,1633.5) translate(0 20.444444444444443)"/><use xlink:href="#G" transform="matrix(1,0,0,1,625,1670.5) translate(10.833333333333336 20.444444444444443)"/><use xlink:href="#H" transform="matrix(1,0,0,1,685,1670.5) translate(0 20.444444444444443)"/><use xlink:href="#I" transform="matrix(1,0,0,1,813.3062418725617,1670.5) translate(0 20.444444444444443)"/><path d="M1920 886c0-3.3 2.7-6 6-6h408c3.3 0 6 2.7 6 6v287c0 3.3-2.7 6-6 6h-408c-3.3 0-6-2.7-6-6z" fill="#fff"/><path d="M1920 957h420v37h-420zM1920 1031h420v37h-420zM1920 1105h420v37h-420z" fill="#e6e6e6"/><path d="M1920 880h420v40h-420z" fill="#ccc"/><path d="M1920 886c0-3.3 2.7-6 6-6h408c3.3 0 6 2.7 6 6v287c0 3.3-2.7 6-6 6h-408c-3.3 0-6-2.7-6-6zM1920 920h420M1980 920v259M2172.74 920v259" stroke="#5e5e5e" stroke-width="3" fill="none"/><use xlink:href="#P" transform="matrix(1,0,0,1,1930,880) translate(169.19753086419755 24.444444444444443)"/><use xlink:href="#b" transform="matrix(1,0,0,1,1925,922.5) translate(10.185185185185187 20.444444444444443)"/><use xlink:href="#c" transform="matrix(1,0,0,1,1985,922.5) translate(0 20.444444444444443)"/><use xlink:href="#d" transform="matrix(1,0,0,1,2177.7373211963586,922.5) translate(0 20.444444444444443)"/><use xlink:href="#o" transform="matrix(1,0,0,1,1985,959.5) translate(0 20.444444444444443)"/><use xlink:href="#f" transform="matrix(1,0,0,1,2177.7373211963586,959.5) translate(0 20.444444444444443)"/><use xlink:href="#Q" transform="matrix(1,0,0,1,1985,996.5) translate(0 20.444444444444443)"/><use xlink:href="#A" transform="matrix(1,0,0,1,2177.7373211963586,996.5) translate(0 20.444444444444443)"/><use xlink:href="#k" transform="matrix(1,0,0,1,1985,1033.5) translate(0 20.444444444444443)"/><use xlink:href="#l" transform="matrix(1,0,0,1,2177.7373211963586,1033.5) translate(0 20.444444444444443)"/><use xlink:href="#m" transform="matrix(1,0,0,1,1985,1070.5) translate(0 20.444444444444443)"/><use xlink:href="#l" transform="matrix(1,0,0,1,2177.7373211963586,1070.5) translate(0 20.444444444444443)"/><use xlink:href="#G" transform="matrix(1,0,0,1,1925,1107.5) translate(10.833333333333336 20.444444444444443)"/><use xlink:href="#R" transform="matrix(1,0,0,1,1985,1107.5) translate(0 20.444444444444443)"/><use xlink:href="#I" transform="matrix(1,0,0,1,2177.7373211963586,1107.5) translate(0 20.444444444444443)"/><use xlink:href="#G" transform="matrix(1,0,0,1,1925,1144.5) translate(10.833333333333336 20.444444444444443)"/><use xlink:href="#S" transform="matrix(1,0,0,1,1985,1144.5) translate(0 20.444444444444443)"/><use xlink:href="#I" transform="matrix(1,0,0,1,2177.7373211963586,1144.5) translate(0 20.444444444444443)"/><path d="M1940 1387.5c0-3.3 2.7-6 6-6h368c3.3 0 6 2.7 6 6v213c0 3.3-2.7 6-6 6h-368c-3.3 0-6-2.7-6-6z" fill="#fff"/><path d="M1940 1458.5h380v37h-380zM1940 1532.5h380v37h-380z" fill="#e6e6e6"/><path d="M1940 1381.5h380v40h-380z" fill="#ccc"/><path d="M1940 1387.5c0-3.3 2.7-6 6-6h368c3.3 0 6 2.7 6 6v213c0 3.3-2.7 6-6 6h-368c-3.3 0-6-2.7-6-6zM1940 1421.5h380M2000 1421.5v185M2128.3 1421.5v185" stroke="#5e5e5e" stroke-width="3" fill="none"/><use xlink:href="#T" transform="matrix(1,0,0,1,1950,1381.5) translate(125.68518518518519 24.444444444444443)"/><use xlink:href="#b" transform="matrix(1,0,0,1,1945,1424) translate(10.185185185185187 20.444444444444443)"/><use xlink:href="#c" transform="matrix(1,0,0,1,2005,1424) translate(0 20.444444444444443)"/><use xlink:href="#d" transform="matrix(1,0,0,1,2133.3062418725617,1424) translate(0 20.444444444444443)"/><use xlink:href="#y" transform="matrix(1,0,0,1,2005,1461) translate(0 20.444444444444443)"/><use xlink:href="#f" transform="matrix(1,0,0,1,2133.3062418725617,1461) translate(0 20.444444444444443)"/><use xlink:href="#M" transform="matrix(1,0,0,1,2005,1498) translate(0 20.444444444444443)"/><use xlink:href="#f" transform="matrix(1,0,0,1,2133.3062418725617,1498) translate(0 20.444444444444443)"/><use xlink:href="#U" transform="matrix(1,0,0,1,2005,1535) translate(0 20.444444444444443)"/><use xlink:href="#O" transform="matrix(1,0,0,1,2133.3062418725617,1535) translate(0 20.444444444444443)"/><use xlink:href="#G" transform="matrix(1,0,0,1,1945,1572) translate(10.833333333333336 20.444444444444443)"/><use xlink:href="#V" transform="matrix(1,0,0,1,2005,1572) translate(0 20.444444444444443)"/><use xlink:href="#I" transform="matrix(1,0,0,1,2133.3062418725617,1572) translate(0 20.444444444444443)"/><path d="M2261.5 678.37h12.5c3.3 0 6 2.68 6 6v62.84c0 3.33 2.7 6 6 6h13.68" stroke="#5e5e5e" stroke-width="2" fill="none"/><path d="M2261.5 688.37v-20M2241.5 678.37h20M2318.05 763.2l-20-10 20-10M2318.05 753.2h-20" stroke="#5e5e5e" stroke-width="2" fill="#fff"/><path d="M1860 626c0-3.3 2.7-6 6-6h368c3.3 0 6 2.7 6 6v139c0 3.3-2.7 6-6 6h-368c-3.3 0-6-2.7-6-6z" fill="#fff"/><path d="M1860 697h380v37h-380z" fill="#e6e6e6"/><path d="M1860 620h380v40h-380z" fill="#ccc"/><path d="M1860 626c0-3.3 2.7-6 6-6h368c3.3 0 6 2.7 6 6v139c0 3.3-2.7 6-6 6h-368c-3.3 0-6-2.7-6-6zM1860 660h380M1920 660v111M2066.52 660v111" stroke="#5e5e5e" stroke-width="3" fill="none"/><use xlink:href="#W" transform="matrix(1,0,0,1,1870,620) translate(164.5679012345679 24.444444444444443)"/><use xlink:href="#b" transform="matrix(1,0,0,1,1865,662.5) translate(10.185185185185187 20.444444444444443)"/><use xlink:href="#c" transform="matrix(1,0,0,1,1925,662.5) translate(0 20.444444444444443)"/><use xlink:href="#d" transform="matrix(1,0,0,1,2071.5214564369307,662.5) translate(0 20.444444444444443)"/><use xlink:href="#y" transform="matrix(1,0,0,1,1925,699.5) translate(0 20.444444444444443)"/><use xlink:href="#f" transform="matrix(1,0,0,1,2071.5214564369307,699.5) translate(0 20.444444444444443)"/><use xlink:href="#X" transform="matrix(1,0,0,1,1925,736.5) translate(0 20.444444444444443)"/><use xlink:href="#t" transform="matrix(1,0,0,1,2071.5214564369307,736.5) translate(0 20.444444444444443)"/><path d="M1340 366c0-3.3 2.7-6 6-6h308c3.3 0 6 2.7 6 6v139c0 3.3-2.7 6-6 6h-308c-3.3 0-6-2.7-6-6z" fill="#fff"/><path d="M1340 437h320v37h-320z" fill="#e6e6e6"/><path d="M1340 360h320v40h-320z" fill="#ccc"/><path d="M1340 366c0-3.3 2.7-6 6-6h308c3.3 0 6 2.7 6 6v139c0 3.3-2.7 6-6 6h-308c-3.3 0-6-2.7-6-6zM1340 400h320M1400 400v111M1547 400v111" stroke="#5e5e5e" stroke-width="3" fill="none"/><use xlink:href="#Y" transform="matrix(1,0,0,1,1350,360) translate(89.01234567901234 24.444444444444443)"/><use xlink:href="#b" transform="matrix(1,0,0,1,1345,402.5) translate(10.185185185185187 20.444444444444443)"/><use xlink:href="#c" transform="matrix(1,0,0,1,1405,402.5) translate(0 20.444444444444443)"/><use xlink:href="#d" transform="matrix(1,0,0,1,1552.0000000000002,402.5) translate(0 20.444444444444443)"/><use xlink:href="#v" transform="matrix(1,0,0,1,1345,439.5) translate(10.833333333333336 20.444444444444443)"/><use xlink:href="#E" transform="matrix(1,0,0,1,1405,439.5) translate(0 20.444444444444443)"/><use xlink:href="#w" transform="matrix(1,0,0,1,1552.0000000000002,439.5) translate(0 20.444444444444443)"/><use xlink:href="#v" transform="matrix(1,0,0,1,1345,476.5) translate(10.833333333333336 20.444444444444443)"/><use xlink:href="#Z" transform="matrix(1,0,0,1,1405,476.5) translate(0 20.444444444444443)"/><use xlink:href="#w" transform="matrix(1,0,0,1,1552.0000000000002,476.5) translate(0 20.444444444444443)"/><path d="M2320 626c0-3.3 2.7-6 6-6h228c3.3 0 6 2.7 6 6v139c0 3.3-2.7 6-6 6h-228c-3.3 0-6-2.7-6-6z" fill="#fff"/><path d="M2320 697h240v37h-240z" fill="#e6e6e6"/><path d="M2320 620h240v40h-240z" fill="#ccc"/><path d="M2320 626c0-3.3 2.7-6 6-6h228c3.3 0 6 2.7 6 6v139c0 3.3-2.7 6-6 6h-228c-3.3 0-6-2.7-6-6zM2320 660h240M2380 660v111M2470 660v111" stroke="#5e5e5e" stroke-width="3" fill="none"/><use xlink:href="#aa" transform="matrix(1,0,0,1,2330,620) translate(34.78395061728395 24.444444444444443)"/><use xlink:href="#ab" transform="matrix(1,0,0,1,2325,662.5) translate(10.185185185185187 20.444444444444443)"/><use xlink:href="#ac" transform="matrix(1,0,0,1,2385,662.5) translate(0 20.444444444444443)"/><use xlink:href="#ad" transform="matrix(1,0,0,1,2475,662.5) translate(0 20.444444444444443)"/><use xlink:href="#ae" transform="matrix(1,0,0,1,2325,699.5) translate(10.833333333333336 20.444444444444443)"/><use xlink:href="#af" transform="matrix(1,0,0,1,2385,699.5) translate(0 20.444444444444443)"/><use xlink:href="#ad" transform="matrix(1,0,0,1,2475,699.5) translate(0 20.444444444444443)"/><use xlink:href="#ae" transform="matrix(1,0,0,1,2325,736.5) translate(10.833333333333336 20.444444444444443)"/><use xlink:href="#ag" transform="matrix(1,0,0,1,2385,736.5) translate(0 20.444444444444443)"/><use xlink:href="#ad" transform="matrix(1,0,0,1,2475,736.5) translate(0 20.444444444444443)"/><path d="M2020 46c0-3.3 2.7-6 6-6h288c3.3 0 6 2.7 6 6v139c0 3.3-2.7 6-6 6h-288c-3.3 0-6-2.7-6-6z" fill="#fff"/><path d="M2020 117h300v37h-300z" fill="#e6e6e6"/><path d="M2020 40h300v40h-300z" fill="#ccc"/><path d="M2020 46c0-3.3 2.7-6 6-6h288c3.3 0 6 2.7 6 6v139c0 3.3-2.7 6-6 6h-288c-3.3 0-6-2.7-6-6zM2020 80h300M2080 80v111M2218 80v111" stroke="#5e5e5e" stroke-width="3" fill="none"/><use xlink:href="#ah" transform="matrix(1,0,0,1,2030,40) translate(91.29629629629629 24.444444444444443)"/><use xlink:href="#b" transform="matrix(1,0,0,1,2025,82.5) translate(10.185185185185187 20.444444444444443)"/><use xlink:href="#c" transform="matrix(1,0,0,1,2085,82.5) translate(0 20.444444444444443)"/><use xlink:href="#d" transform="matrix(1,0,0,1,2223,82.5) translate(0 20.444444444444443)"/><use xlink:href="#v" transform="matrix(1,0,0,1,2025,119.5) translate(10.833333333333336 20.444444444444443)"/><use xlink:href="#ai" transform="matrix(1,0,0,1,2085,119.5) translate(0 20.444444444444443)"/><use xlink:href="#w" transform="matrix(1,0,0,1,2223,119.5) translate(0 20.444444444444443)"/><use xlink:href="#v" transform="matrix(1,0,0,1,2025,156.5) translate(10.833333333333336 20.444444444444443)"/><use xlink:href="#E" transform="matrix(1,0,0,1,2085,156.5) translate(0 20.444444444444443)"/><use xlink:href="#w" transform="matrix(1,0,0,1,2223,156.5) translate(0 20.444444444444443)"/><path d="M1980 247.77c0-3.3 2.7-6 6-6h368c3.3 0 6 2.7 6 6v287c0 3.32-2.7 6-6 6h-368c-3.3 0-6-2.68-6-6z" fill="#fff"/><path d="M1980 318.77h380v37h-380zM1980 392.77h380v37h-380zM1980 466.77h380v37h-380z" fill="#e6e6e6"/><path d="M1980 241.77h380v40h-380z" fill="#ccc"/><path d="M1980 247.77c0-3.3 2.7-6 6-6h368c3.3 0 6 2.7 6 6v287c0 3.32-2.7 6-6 6h-368c-3.3 0-6-2.68-6-6zM1980 281.77h380M2040 281.77v259M2176.4 281.77v259" stroke="#5e5e5e" stroke-width="3" fill="none"/><use xlink:href="#aj" transform="matrix(1,0,0,1,1990,241.7717105263157) translate(134.3827160493827 24.444444444444443)"/><use xlink:href="#b" transform="matrix(1,0,0,1,1985,284.2717105263157) translate(10.185185185185187 20.444444444444443)"/><use xlink:href="#c" transform="matrix(1,0,0,1,2045,284.2717105263157) translate(0 20.444444444444443)"/><use xlink:href="#d" transform="matrix(1,0,0,1,2181.40767230169,284.2717105263157) translate(0 20.444444444444443)"/><use xlink:href="#o" transform="matrix(1,0,0,1,2045,321.2717105263157) translate(0 20.444444444444443)"/><use xlink:href="#f" transform="matrix(1,0,0,1,2181.40767230169,321.2717105263157) translate(0 20.444444444444443)"/><use xlink:href="#Q" transform="matrix(1,0,0,1,2045,358.2717105263157) translate(0 20.444444444444443)"/><use xlink:href="#A" transform="matrix(1,0,0,1,2181.40767230169,358.2717105263157) translate(0 20.444444444444443)"/><use xlink:href="#N" transform="matrix(1,0,0,1,2045,395.2717105263157) translate(0 20.444444444444443)"/><use xlink:href="#O" transform="matrix(1,0,0,1,2181.40767230169,395.2717105263157) translate(0 20.444444444444443)"/><use xlink:href="#U" transform="matrix(1,0,0,1,2045,432.2717105263157) translate(0 20.444444444444443)"/><use xlink:href="#O" transform="matrix(1,0,0,1,2181.40767230169,432.2717105263157) translate(0 20.444444444444443)"/><use xlink:href="#G" transform="matrix(1,0,0,1,1985,469.2717105263157) translate(10.833333333333336 20.444444444444443)"/><use xlink:href="#E" transform="matrix(1,0,0,1,2045,469.2717105263157) translate(0 20.444444444444443)"/><use xlink:href="#I" transform="matrix(1,0,0,1,2181.40767230169,469.2717105263157) translate(0 20.444444444444443)"/><use xlink:href="#G" transform="matrix(1,0,0,1,1985,506.2717105263157) translate(10.833333333333336 20.444444444444443)"/><use xlink:href="#S" transform="matrix(1,0,0,1,2045,506.2717105263157) translate(0 20.444444444444443)"/><use xlink:href="#I" transform="matrix(1,0,0,1,2181.40767230169,506.2717105263157) translate(0 20.444444444444443)"/><path d="M1838.5 678.5H1766c-3.3 0-6-2.7-6-6v-174c0-3.3-2.7-6-6-6h-73.68" stroke="#5e5e5e" stroke-width="2" fill="none"/><path d="M1838.5 668.5v20M1858.5 678.5h-20M1661.95 482.5l20 10-20 10M1661.95 492.5h20" stroke="#5e5e5e" stroke-width="2" fill="#fff"/><path d="M1221.5 320.5h42.5c3.3 0 6 2.7 6 6v123c0 3.3 2.7 6 6 6h43.68" stroke="#5e5e5e" stroke-width="2" fill="none"/><path d="M1221.5 330.5v-20M1201.5 320.5h20M1338.05 465.5l-20-10 20-10M1338.05 455.5h-20" stroke="#5e5e5e" stroke-width="2" fill="#fff"/><path d="M1360 730c0-3.3 2.7-6 6-6h308c3.3 0 6 2.7 6 6v139c0 3.3-2.7 6-6 6h-308c-3.3 0-6-2.7-6-6z" fill="#fff"/><path d="M1360 801h320v37h-320z" fill="#e6e6e6"/><path d="M1360 724h320v40h-320z" fill="#ccc"/><path d="M1360 730c0-3.3 2.7-6 6-6h308c3.3 0 6 2.7 6 6v139c0 3.3-2.7 6-6 6h-308c-3.3 0-6-2.7-6-6zM1360 764h320M1420 764v111M1567 764v111" stroke="#5e5e5e" stroke-width="3" fill="none"/><use xlink:href="#ak" transform="matrix(1,0,0,1,1370,724) translate(109.32098765432099 24.444444444444443)"/><use xlink:href="#b" transform="matrix(1,0,0,1,1365,766.5) translate(10.185185185185187 20.444444444444443)"/><use xlink:href="#c" transform="matrix(1,0,0,1,1425,766.5) translate(0 20.444444444444443)"/><use xlink:href="#d" transform="matrix(1,0,0,1,1572.0000000000002,766.5) translate(0 20.444444444444443)"/><use xlink:href="#v" transform="matrix(1,0,0,1,1365,803.5) translate(10.833333333333336 20.444444444444443)"/><use xlink:href="#al" transform="matrix(1,0,0,1,1425,803.5) translate(0 20.444444444444443)"/><use xlink:href="#w" transform="matrix(1,0,0,1,1572.0000000000002,803.5) translate(0 20.444444444444443)"/><use xlink:href="#v" transform="matrix(1,0,0,1,1365,840.5) translate(10.833333333333336 20.444444444444443)"/><use xlink:href="#am" transform="matrix(1,0,0,1,1425,840.5) translate(0 20.444444444444443)"/><use xlink:href="#w" transform="matrix(1,0,0,1,1572.0000000000002,840.5) translate(0 20.444444444444443)"/><path d="M1838.5 715.5H1776c-3.3 0-6 2.7-6 6v129c0 3.3-2.7 6-6 6h-63.68" stroke="#5e5e5e" stroke-width="2" fill="none"/><path d="M1838.5 705.5v20M1858.5 715.5h-20M1681.95 846.5l20 10-20 10M1681.95 856.5h20" stroke="#5e5e5e" stroke-width="2" fill="#fff"/><path d="M1261.5 782.5h32.5c3.3 0 6 2.7 6 6v25c0 3.3 2.7 6 6 6h33.68" stroke="#5e5e5e" stroke-width="2" fill="none"/><path d="M1261.5 792.5v-20M1241.5 782.5h20M1358.05 829.5l-20-10 20-10M1358.05 819.5h-20" stroke="#5e5e5e" stroke-width="2" fill="#fff"/><path d="M2698.5 522.27h-318.18" stroke="#5e5e5e" stroke-width="2" fill="none"/><path d="M2698.5 512.27v20M2718.5 522.27h-20M2361.95 512.27l20 10-20 10M2361.95 522.27h20" stroke="#5e5e5e" stroke-width="2" fill="#fff"/><path d="M2794.02 442.27V141.5c0-3.3-2.7-6-6-6h-447.7" stroke="#5e5e5e" stroke-width="2" fill="none"/><path d="M2804.02 442.27h-20M2794.02 462.27v-20M2321.95 125.5l20 10-20 10M2321.95 135.5h20" stroke="#5e5e5e" stroke-width="2" fill="#fff"/><path d="M1221.5 98.5H1674c3.3 0 6 2.7 6 6v62c0 3.3 2.7 6 6 6h313.68" stroke="#5e5e5e" stroke-width="2" fill="none"/><path d="M1221.5 108.5v-20M1201.5 98.5h20M2018.05 182.5l-20-10 20-10M2018.05 172.5h-20" stroke="#5e5e5e" stroke-width="2" fill="#fff"/><path d="M601.5 557.5H684c3.3 0 6 2.7 6 6v213c0 3.3 2.7 6 6 6h83.68" stroke="#5e5e5e" stroke-width="2" fill="none"/><path d="M601.5 567.5v-20M581.5 557.5h20M798.05 792.5l-20-10 20-10M798.05 782.5h-20" stroke="#5e5e5e" stroke-width="2" fill="#fff"/><path d="M2763.02 784.27v370.23c0 3.3-2.68 6-6 6h-396.7" stroke="#5e5e5e" stroke-width="2" fill="none"/><path d="M2753.02 784.27h20M2763.02 764.27v20M2341.95 1150.5l20 10-20 10M2341.95 1160.5h20" stroke="#5e5e5e" stroke-width="2" fill="#fff"/><path d="M1170.14 859.5v258c0 3.3 2.7 6 6 6h723.54" stroke="#5e5e5e" stroke-width="2" fill="none"/><path d="M1160.14 859.5h20M1170.14 839.5v20M1918.05 1133.5l-20-10 20-10M1918.05 1123.5h-20" stroke="#5e5e5e" stroke-width="2" fill="#fff"/><path d="M2130 1200.5v160.68" stroke="#5e5e5e" stroke-width="2" fill="none"/><path d="M2120 1200.5h20M2130 1180.5v20M2120 1379.55l10-20 10 20M2130 1379.55v-20" stroke="#5e5e5e" stroke-width="2" fill="#fff"/><path d="M1221.5 209.5H1584c3.3 0 6 2.7 6 6v78.77c0 3.32 2.7 6 6 6h363.68" stroke="#5e5e5e" stroke-width="2" fill="none"/><path d="M1221.5 219.5v-20M1201.5 209.5h20M1978.05 310.27l-20-10 20-10M1978.05 300.27h-20" stroke="#5e5e5e" stroke-width="2" fill="#fff"/><path d="M598.5 1237.5h-14c-3.3 0-6-2.7-6-6v-406c0-3.3 2.7-6 6-6h195.18" stroke="#5e5e5e" stroke-width="2" fill="none"/><path d="M598.5 1227.5v20M618.5 1237.5h-20M798.05 829.5l-20-10 20-10M798.05 819.5h-20" stroke="#5e5e5e" stroke-width="2" fill="#fff"/><path d="M810 1388.5v71.18" stroke="#5e5e5e" stroke-width="2" fill="none"/><path d="M800 1388.5h20M810 1368.5v20M800 1478.05l10-20 10 20M810 1478.05v-20" stroke="#5e5e5e" stroke-width="2" fill="#fff"/><path d="M1010 397.5v121.18" stroke="#5e5e5e" stroke-width="2" fill="none"/><path d="M1000 397.5h20M1010 377.5v20M1000 537.05l10-20 10 20M1010 537.05v-20" stroke="#5e5e5e" stroke-width="2" fill="#fff"/><path d="M2698.5 708.06h-118.18" stroke="#5e5e5e" stroke-width="2" fill="none"/><path d="M2698.5 698.06v20M2718.5 708.06h-20M2561.95 698.06l20 10-20 10M2561.95 708.06h20" stroke="#5e5e5e" stroke-width="2" fill="#fff"/><defs><path d="M84 4C-5 8 30-112 23-190h32v120c0 31 7 50 39 49 72-2 45-101 50-169h31l1 190h-30c-1-10 1-25-2-33-11 22-28 36-60 37" id="an"/><path d="M135-143c-3-34-86-38-87 0 15 53 115 12 119 90S17 21 10-45l28-5c4 36 97 45 98 0-10-56-113-15-118-90-4-57 82-63 122-42 12 7 21 19 24 35" id="ao"/><path d="M100-194c63 0 86 42 84 106H49c0 40 14 67 53 68 26 1 43-12 49-29l28 8c-11 28-37 45-77 45C44 4 14-33 15-96c1-61 26-98 85-98zm52 81c6-60-76-77-97-28-3 7-6 17-6 28h103" id="ap"/><path d="M114-163C36-179 61-72 57 0H25l-1-190h30c1 12-1 29 2 39 6-27 23-49 58-41v29" id="aq"/><g id="a"><use transform="matrix(0.06172839506172839,0,0,0.06172839506172839,0,0)" xlink:href="#an"/><use transform="matrix(0.06172839506172839,0,0,0.06172839506172839,12.345679012345679,0)" xlink:href="#ao"/><use transform="matrix(0.06172839506172839,0,0,0.06172839506172839,23.45679012345679,0)" xlink:href="#ap"/><use transform="matrix(0.06172839506172839,0,0,0.06172839506172839,35.80246913580247,0)" xlink:href="#aq"/></g><path d="M30-248c87 1 191-15 191 75 0 78-77 80-158 76V0H30v-248zm33 125c57 0 124 11 124-50 0-59-68-47-124-48v98" id="ar"/><path d="M194 0L95-120 63-95V0H30v-248h33v124l119-124h40L117-140 236 0h-42" id="as"/><g id="b"><use transform="matrix(0.06172839506172839,0,0,0.06172839506172839,0,0)" xlink:href="#ar"/><use transform="matrix(0.06172839506172839,0,0,0.06172839506172839,14.814814814814813,0)" xlink:href="#as"/></g><path d="M24-231v-30h32v30H24zM24 0v-190h32V0H24" id="at"/><path d="M85-194c31 0 48 13 60 33l-1-100h32l1 261h-30c-2-10 0-23-3-31C134-8 116 4 85 4 32 4 16-35 15-94c0-66 23-100 70-100zm9 24c-40 0-46 34-46 75 0 40 6 74 45 74 42 0 51-32 51-76 0-42-9-74-50-73" id="au"/><g id="c"><use transform="matrix(0.06172839506172839,0,0,0.06172839506172839,0,0)" xlink:href="#at"/><use transform="matrix(0.06172839506172839,0,0,0.06172839506172839,4.876543209876543,0)" xlink:href="#au"/></g><path d="M185-189c-5-48-123-54-124 2 14 75 158 14 163 119 3 78-121 87-175 55-17-10-28-26-33-46l33-7c5 56 141 63 141-1 0-78-155-14-162-118-5-82 145-84 179-34 5 7 8 16 11 25" id="av"/><path d="M30 0v-248h187v28H63v79h144v27H63v87h162V0H30" id="aw"/><path d="M233-177c-1 41-23 64-60 70L243 0h-38l-65-103H63V0H30v-248c88 3 205-21 203 71zM63-129c60-2 137 13 137-47 0-61-80-42-137-45v92" id="ax"/><path d="M33 0v-248h34V0H33" id="ay"/><path d="M205 0l-28-72H64L36 0H1l101-248h38L239 0h-34zm-38-99l-47-123c-12 45-31 82-46 123h93" id="az"/><path d="M30 0v-248h33v221h125V0H30" id="aA"/><g id="d"><use transform="matrix(0.06172839506172839,0,0,0.06172839506172839,0,0)" xlink:href="#av"/><use transform="matrix(0.06172839506172839,0,0,0.06172839506172839,14.814814814814813,0)" xlink:href="#aw"/><use transform="matrix(0.06172839506172839,0,0,0.06172839506172839,29.629629629629626,0)" xlink:href="#ax"/><use transform="matrix(0.06172839506172839,0,0,0.06172839506172839,45.61728395061728,0)" xlink:href="#ay"/><use transform="matrix(0.06172839506172839,0,0,0.06172839506172839,51.79012345679012,0)" xlink:href="#az"/><use transform="matrix(0.06172839506172839,0,0,0.06172839506172839,66.60493827160494,0)" xlink:href="#aA"/></g><path d="M117-194c89-4 53 116 60 194h-32v-121c0-31-8-49-39-48C34-167 62-67 57 0H25l-1-190h30c1 10-1 24 2 32 11-22 29-35 61-36" id="aB"/><path d="M141-36C126-15 110 5 73 4 37 3 15-17 15-53c-1-64 63-63 125-63 3-35-9-54-41-54-24 1-41 7-42 31l-33-3c5-37 33-52 76-52 45 0 72 20 72 64v82c-1 20 7 32 28 27v20c-31 9-61-2-59-35zM48-53c0 20 12 33 32 33 41-3 63-29 60-74-43 2-92-5-92 41" id="aC"/><path d="M210-169c-67 3-38 105-44 169h-31v-121c0-29-5-50-35-48C34-165 62-65 56 0H25l-1-190h30c1 10-1 24 2 32 10-44 99-50 107 0 11-21 27-35 58-36 85-2 47 119 55 194h-31v-121c0-29-5-49-35-48" id="aD"/><g id="e"><use transform="matrix(0.06172839506172839,0,0,0.06172839506172839,0,0)" xlink:href="#an"/><use transform="matrix(0.06172839506172839,0,0,0.06172839506172839,12.345679012345679,0)" xlink:href="#ao"/><use transform="matrix(0.06172839506172839,0,0,0.06172839506172839,23.45679012345679,0)" xlink:href="#ap"/><use transform="matrix(0.06172839506172839,0,0,0.06172839506172839,35.80246913580247,0)" xlink:href="#aq"/><use transform="matrix(0.06172839506172839,0,0,0.06172839506172839,43.148148148148145,0)" xlink:href="#aB"/><use transform="matrix(0.06172839506172839,0,0,0.06172839506172839,55.49382716049382,0)" xlink:href="#aC"/><use transform="matrix(0.06172839506172839,0,0,0.06172839506172839,67.8395061728395,0)" xlink:href="#aD"/><use transform="matrix(0.06172839506172839,0,0,0.06172839506172839,86.29629629629629,0)" xlink:href="#ap"/></g><path d="M137 0h-34L2-248h35l83 218 83-218h36" id="aE"/><path d="M212-179c-10-28-35-45-73-45-59 0-87 40-87 99 0 60 29 101 89 101 43 0 62-24 78-52l27 14C228-24 195 4 139 4 59 4 22-46 18-125c-6-104 99-153 187-111 19 9 31 26 39 46" id="aF"/><path d="M197 0v-115H63V0H30v-248h33v105h134v-105h34V0h-34" id="aG"/><path d="M87 75C49 33 22-17 22-94c0-76 28-126 65-167h31c-38 41-64 92-64 168S80 34 118 75H87" id="aH"/><path d="M101-251c82-7 93 87 43 132L82-64C71-53 59-42 53-27h129V0H18c2-99 128-94 128-182 0-28-16-43-45-43s-46 15-49 41l-32-3c6-41 34-60 81-64" id="aI"/><path d="M54-142c48-35 137-8 131 61C196 18 31 33 14-55l32-4c7 23 22 37 52 37 35-1 51-22 54-58 4-55-73-65-99-34H22l8-134h141v27H59" id="aJ"/><path d="M33-261c38 41 65 92 65 168S71 34 33 75H2C39 34 66-17 66-93S39-220 2-261h31" id="aK"/><g id="f"><use transform="matrix(0.06172839506172839,0,0,0.06172839506172839,0,0)" xlink:href="#aE"/><use transform="matrix(0.06172839506172839,0,0,0.06172839506172839,13.148148148148147,0)" xlink:href="#az"/><use transform="matrix(0.06172839506172839,0,0,0.06172839506172839,27.962962962962962,0)" xlink:href="#ax"/><use transform="matrix(0.06172839506172839,0,0,0.06172839506172839,43.95061728395061,0)" xlink:href="#aF"/><use transform="matrix(0.06172839506172839,0,0,0.06172839506172839,59.938271604938265,0)" xlink:href="#aG"/><use transform="matrix(0.06172839506172839,0,0,0.06172839506172839,75.92592592592592,0)" xlink:href="#az"/><use transform="matrix(0.06172839506172839,0,0,0.06172839506172839,90.74074074074073,0)" xlink:href="#ax"/><use transform="matrix(0.06172839506172839,0,0,0.06172839506172839,106.72839506172839,0)" xlink:href="#aH"/><use transform="matrix(0.06172839506172839,0,0,0.06172839506172839,114.07407407407408,0)" xlink:href="#aI"/><use transform="matrix(0.06172839506172839,0,0,0.06172839506172839,126.41975308641977,0)" xlink:href="#aJ"/><use transform="matrix(0.06172839506172839,0,0,0.06172839506172839,138.76543209876544,0)" xlink:href="#aJ"/><use transform="matrix(0.06172839506172839,0,0,0.06172839506172839,151.11111111111111,0)" xlink:href="#aK"/></g><path d="M24 0v-261h32V0H24" id="aL"/><g id="g"><use transform="matrix(0.06172839506172839,0,0,0.06172839506172839,0,0)" xlink:href="#ap"/><use transform="matrix(0.06172839506172839,0,0,0.06172839506172839,12.345679012345679,0)" xlink:href="#aD"/><use transform="matrix(0.06172839506172839,0,0,0.06172839506172839,30.80246913580247,0)" xlink:href="#aC"/><use transform="matrix(0.06172839506172839,0,0,0.06172839506172839,43.148148148148145,0)" xlink:href="#at"/><use transform="matrix(0.06172839506172839,0,0,0.06172839506172839,48.02469135802469,0)" xlink:href="#aL"/></g><path d="M115-194c55 1 70 41 70 98S169 2 115 4C84 4 66-9 55-30l1 105H24l-1-265h31l2 30c10-21 28-34 59-34zm-8 174c40 0 45-34 45-75s-6-73-45-74c-42 0-51 32-51 76 0 43 10 73 51 73" id="aM"/><path d="M206 0h-36l-40-164L89 0H53L-1-190h32L70-26l43-164h34l41 164 42-164h31" id="aN"/><path d="M100-194c62-1 85 37 85 99 1 63-27 99-86 99S16-35 15-95c0-66 28-99 85-99zM99-20c44 1 53-31 53-75 0-43-8-75-51-75s-53 32-53 75 10 74 51 75" id="aO"/><g id="h"><use transform="matrix(0.06172839506172839,0,0,0.06172839506172839,0,0)" xlink:href="#aM"/><use transform="matrix(0.06172839506172839,0,0,0.06172839506172839,12.345679012345679,0)" xlink:href="#aC"/><use transform="matrix(0.06172839506172839,0,0,0.06172839506172839,24.691358024691358,0)" xlink:href="#ao"/><use transform="matrix(0.06172839506172839,0,0,0.06172839506172839,35.80246913580247,0)" xlink:href="#ao"/><use transform="matrix(0.06172839506172839,0,0,0.06172839506172839,46.91358024691358,0)" xlink:href="#aN"/><use transform="matrix(0.06172839506172839,0,0,0.06172839506172839,62.901234567901234,0)" xlink:href="#aO"/><use transform="matrix(0.06172839506172839,0,0,0.06172839506172839,75.24691358024691,0)" xlink:href="#aq"/><use transform="matrix(0.06172839506172839,0,0,0.06172839506172839,82.5925925925926,0)" xlink:href="#au"/></g><path d="M-5 72V49h209v23H-5" id="aP"/><path d="M59-47c-2 24 18 29 38 22v24C64 9 27 4 27-40v-127H5v-23h24l9-43h21v43h35v23H59v120" id="aQ"/><g id="i"><use transform="matrix(0.06172839506172839,0,0,0.06172839506172839,0,0)" xlink:href="#at"/><use transform="matrix(0.06172839506172839,0,0,0.06172839506172839,4.876543209876543,0)" xlink:href="#ao"/><use transform="matrix(0.06172839506172839,0,0,0.06172839506172839,15.987654320987653,0)" xlink:href="#aP"/><use transform="matrix(0.06172839506172839,0,0,0.06172839506172839,28.333333333333332,0)" xlink:href="#au"/><use transform="matrix(0.06172839506172839,0,0,0.06172839506172839,40.67901234567901,0)" xlink:href="#ap"/><use transform="matrix(0.06172839506172839,0,0,0.06172839506172839,53.02469135802469,0)" xlink:href="#aL"/><use transform="matrix(0.06172839506172839,0,0,0.06172839506172839,57.901234567901234,0)" xlink:href="#ap"/><use transform="matrix(0.06172839506172839,0,0,0.06172839506172839,70.24691358024691,0)" xlink:href="#aQ"/><use transform="matrix(0.06172839506172839,0,0,0.06172839506172839,76.41975308641975,0)" xlink:href="#ap"/><use transform="matrix(0.06172839506172839,0,0,0.06172839506172839,88.76543209876543,0)" xlink:href="#au"/></g><path d="M160-131c35 5 61 23 61 61C221 17 115-2 30 0v-248c76 3 177-17 177 60 0 33-19 50-47 57zm-97-11c50-1 110 9 110-42 0-47-63-36-110-37v79zm0 115c55-2 124 14 124-45 0-56-70-42-124-44v89" id="aR"/><path d="M140-251c81 0 123 46 123 126C263-46 219 4 140 4 59 4 17-45 17-125s42-126 123-126zm0 227c63 0 89-41 89-101s-29-99-89-99c-61 0-89 39-89 99S79-25 140-24" id="aS"/><path d="M190 0L58-211 59 0H30v-248h39L202-35l-2-213h31V0h-41" id="aT"/><g id="j"><use transform="matrix(0.06172839506172839,0,0,0.06172839506172839,0,0)" xlink:href="#aR"/><use transform="matrix(0.06172839506172839,0,0,0.06172839506172839,14.814814814814813,0)" xlink:href="#aS"/><use transform="matrix(0.06172839506172839,0,0,0.06172839506172839,32.09876543209876,0)" xlink:href="#aS"/><use transform="matrix(0.06172839506172839,0,0,0.06172839506172839,49.38271604938271,0)" xlink:href="#aA"/><use transform="matrix(0.06172839506172839,0,0,0.06172839506172839,61.728395061728385,0)" xlink:href="#aw"/><use transform="matrix(0.06172839506172839,0,0,0.06172839506172839,76.5432098765432,0)" xlink:href="#az"/><use transform="matrix(0.06172839506172839,0,0,0.06172839506172839,91.35802469135801,0)" xlink:href="#aT"/></g><path d="M96-169c-40 0-48 33-48 73s9 75 48 75c24 0 41-14 43-38l32 2c-6 37-31 61-74 61-59 0-76-41-82-99-10-93 101-131 147-64 4 7 5 14 7 22l-32 3c-4-21-16-35-41-35" id="aU"/><g id="k"><use transform="matrix(0.06172839506172839,0,0,0.06172839506172839,0,0)" xlink:href="#aU"/><use transform="matrix(0.06172839506172839,0,0,0.06172839506172839,11.11111111111111,0)" xlink:href="#aq"/><use transform="matrix(0.06172839506172839,0,0,0.06172839506172839,18.45679012345679,0)" xlink:href="#ap"/><use transform="matrix(0.06172839506172839,0,0,0.06172839506172839,30.80246913580247,0)" xlink:href="#aC"/><use transform="matrix(0.06172839506172839,0,0,0.06172839506172839,43.148148148148145,0)" xlink:href="#aQ"/><use transform="matrix(0.06172839506172839,0,0,0.06172839506172839,49.32098765432099,0)" xlink:href="#ap"/><use transform="matrix(0.06172839506172839,0,0,0.06172839506172839,61.666666666666664,0)" xlink:href="#au"/><use transform="matrix(0.06172839506172839,0,0,0.06172839506172839,74.01234567901234,0)" xlink:href="#aP"/><use transform="matrix(0.06172839506172839,0,0,0.06172839506172839,86.35802469135803,0)" xlink:href="#aC"/><use transform="matrix(0.06172839506172839,0,0,0.06172839506172839,98.70370370370371,0)" xlink:href="#aQ"/></g><path d="M127-220V0H93v-220H8v-28h204v28h-85" id="aV"/><path d="M240 0l2-218c-23 76-54 145-80 218h-23L58-218 59 0H30v-248h44l77 211c21-75 51-140 76-211h43V0h-30" id="aW"/><g id="l"><use transform="matrix(0.06172839506172839,0,0,0.06172839506172839,0,0)" xlink:href="#aV"/><use transform="matrix(0.06172839506172839,0,0,0.06172839506172839,13.518518518518517,0)" xlink:href="#ay"/><use transform="matrix(0.06172839506172839,0,0,0.06172839506172839,19.691358024691358,0)" xlink:href="#aW"/><use transform="matrix(0.06172839506172839,0,0,0.06172839506172839,38.148148148148145,0)" xlink:href="#aw"/><use transform="matrix(0.06172839506172839,0,0,0.06172839506172839,52.96296296296296,0)" xlink:href="#av"/><use transform="matrix(0.06172839506172839,0,0,0.06172839506172839,67.77777777777777,0)" xlink:href="#aV"/><use transform="matrix(0.06172839506172839,0,0,0.06172839506172839,79.62962962962962,0)" xlink:href="#az"/><use transform="matrix(0.06172839506172839,0,0,0.06172839506172839,94.44444444444443,0)" xlink:href="#aW"/><use transform="matrix(0.06172839506172839,0,0,0.06172839506172839,112.90123456790121,0)" xlink:href="#ar"/></g><g id="m"><use transform="matrix(0.06172839506172839,0,0,0.06172839506172839,0,0)" xlink:href="#an"/><use transform="matrix(0.06172839506172839,0,0,0.06172839506172839,12.345679012345679,0)" xlink:href="#aM"/><use transform="matrix(0.06172839506172839,0,0,0.06172839506172839,24.691358024691358,0)" xlink:href="#au"/><use transform="matrix(0.06172839506172839,0,0,0.06172839506172839,37.03703703703704,0)" xlink:href="#aC"/><use transform="matrix(0.06172839506172839,0,0,0.06172839506172839,49.382716049382715,0)" xlink:href="#aQ"/><use transform="matrix(0.06172839506172839,0,0,0.06172839506172839,55.55555555555556,0)" xlink:href="#ap"/><use transform="matrix(0.06172839506172839,0,0,0.06172839506172839,67.90123456790124,0)" xlink:href="#au"/><use transform="matrix(0.06172839506172839,0,0,0.06172839506172839,80.24691358024693,0)" xlink:href="#aP"/><use transform="matrix(0.06172839506172839,0,0,0.06172839506172839,92.59259259259261,0)" xlink:href="#aC"/><use transform="matrix(0.06172839506172839,0,0,0.06172839506172839,104.9382716049383,0)" xlink:href="#aQ"/></g><path d="M179-190L93 31C79 59 56 82 12 73V49c39 6 53-20 64-50L1-190h34L92-34l54-156h33" id="aX"/><g id="n"><use transform="matrix(0.06172839506172839,0,0,0.06172839506172839,0,0)" xlink:href="#at"/><use transform="matrix(0.06172839506172839,0,0,0.06172839506172839,4.876543209876543,0)" xlink:href="#aQ"/><use transform="matrix(0.06172839506172839,0,0,0.06172839506172839,11.049382716049383,0)" xlink:href="#at"/><use transform="matrix(0.06172839506172839,0,0,0.06172839506172839,15.925925925925926,0)" xlink:href="#aB"/><use transform="matrix(0.06172839506172839,0,0,0.06172839506172839,28.271604938271604,0)" xlink:href="#ap"/><use transform="matrix(0.06172839506172839,0,0,0.06172839506172839,40.617283950617285,0)" xlink:href="#aq"/><use transform="matrix(0.06172839506172839,0,0,0.06172839506172839,47.96296296296296,0)" xlink:href="#aC"/><use transform="matrix(0.06172839506172839,0,0,0.06172839506172839,60.30864197530864,0)" xlink:href="#aq"/><use transform="matrix(0.06172839506172839,0,0,0.06172839506172839,67.65432098765432,0)" xlink:href="#aX"/></g><g id="o"><use transform="matrix(0.06172839506172839,0,0,0.06172839506172839,0,0)" xlink:href="#aQ"/><use transform="matrix(0.06172839506172839,0,0,0.06172839506172839,6.172839506172839,0)" xlink:href="#at"/><use transform="matrix(0.06172839506172839,0,0,0.06172839506172839,11.049382716049383,0)" xlink:href="#aQ"/><use transform="matrix(0.06172839506172839,0,0,0.06172839506172839,17.22222222222222,0)" xlink:href="#aL"/><use transform="matrix(0.06172839506172839,0,0,0.06172839506172839,22.098765432098766,0)" xlink:href="#ap"/></g><path d="M143 0L79-87 56-68V0H24v-261h32v163l83-92h37l-77 82L181 0h-38" id="aY"/><g id="p"><use transform="matrix(0.06172839506172839,0,0,0.06172839506172839,0,0)" xlink:href="#aL"/><use transform="matrix(0.06172839506172839,0,0,0.06172839506172839,4.876543209876543,0)" xlink:href="#at"/><use transform="matrix(0.06172839506172839,0,0,0.06172839506172839,9.753086419753085,0)" xlink:href="#aY"/><use transform="matrix(0.06172839506172839,0,0,0.06172839506172839,20.864197530864196,0)" xlink:href="#ap"/></g><path d="M232-93c-1 65-40 97-104 97C67 4 28-28 28-90v-158h33c8 89-33 224 67 224 102 0 64-133 71-224h33v155" id="aZ"/><path d="M143 4C61 4 22-44 18-125c-5-107 100-154 193-111 17 8 29 25 37 43l-32 9c-13-25-37-40-76-40-61 0-88 39-88 99 0 61 29 100 91 101 35 0 62-11 79-27v-45h-74v-28h105v86C228-13 192 4 143 4" id="ba"/><path d="M30-248c118-7 216 8 213 122C240-48 200 0 122 0H30v-248zM63-27c89 8 146-16 146-99s-60-101-146-95v194" id="bb"/><g id="q"><use transform="matrix(0.06172839506172839,0,0,0.06172839506172839,0,0)" xlink:href="#aZ"/><use transform="matrix(0.06172839506172839,0,0,0.06172839506172839,15.987654320987653,0)" xlink:href="#aT"/><use transform="matrix(0.06172839506172839,0,0,0.06172839506172839,31.975308641975307,0)" xlink:href="#av"/><use transform="matrix(0.06172839506172839,0,0,0.06172839506172839,46.79012345679012,0)" xlink:href="#ay"/><use transform="matrix(0.06172839506172839,0,0,0.06172839506172839,52.96296296296296,0)" xlink:href="#ba"/><use transform="matrix(0.06172839506172839,0,0,0.06172839506172839,70.24691358024691,0)" xlink:href="#aT"/><use transform="matrix(0.06172839506172839,0,0,0.06172839506172839,86.23456790123457,0)" xlink:href="#aw"/><use transform="matrix(0.06172839506172839,0,0,0.06172839506172839,101.04938271604938,0)" xlink:href="#bb"/></g><g id="r"><use transform="matrix(0.06172839506172839,0,0,0.06172839506172839,0,0)" xlink:href="#ay"/><use transform="matrix(0.06172839506172839,0,0,0.06172839506172839,6.172839506172839,0)" xlink:href="#aT"/><use transform="matrix(0.06172839506172839,0,0,0.06172839506172839,22.160493827160494,0)" xlink:href="#aV"/></g><path d="M108 0H70L1-190h34L89-25l56-165h34" id="bc"/><g id="s"><use transform="matrix(0.06172839506172839,0,0,0.06172839506172839,0,0)" xlink:href="#at"/><use transform="matrix(0.06172839506172839,0,0,0.06172839506172839,4.876543209876543,0)" xlink:href="#ao"/><use transform="matrix(0.06172839506172839,0,0,0.06172839506172839,15.987654320987653,0)" xlink:href="#aP"/><use transform="matrix(0.06172839506172839,0,0,0.06172839506172839,28.333333333333332,0)" xlink:href="#aM"/><use transform="matrix(0.06172839506172839,0,0,0.06172839506172839,40.67901234567901,0)" xlink:href="#aq"/><use transform="matrix(0.06172839506172839,0,0,0.06172839506172839,48.02469135802469,0)" xlink:href="#at"/><use transform="matrix(0.06172839506172839,0,0,0.06172839506172839,52.901234567901234,0)" xlink:href="#bc"/><use transform="matrix(0.06172839506172839,0,0,0.06172839506172839,64.01234567901234,0)" xlink:href="#aC"/><use transform="matrix(0.06172839506172839,0,0,0.06172839506172839,76.35802469135803,0)" xlink:href="#aQ"/><use transform="matrix(0.06172839506172839,0,0,0.06172839506172839,82.53086419753086,0)" xlink:href="#ap"/></g><g id="t"><use transform="matrix(0.06172839506172839,0,0,0.06172839506172839,0,0)" xlink:href="#aR"/><use transform="matrix(0.06172839506172839,0,0,0.06172839506172839,14.814814814814813,0)" xlink:href="#aS"/><use transform="matrix(0.06172839506172839,0,0,0.06172839506172839,32.09876543209876,0)" xlink:href="#aS"/><use transform="matrix(0.06172839506172839,0,0,0.06172839506172839,49.38271604938271,0)" xlink:href="#aA"/><use transform="matrix(0.06172839506172839,0,0,0.06172839506172839,61.728395061728385,0)" xlink:href="#aw"/><use transform="matrix(0.06172839506172839,0,0,0.06172839506172839,76.5432098765432,0)" xlink:href="#az"/><use transform="matrix(0.06172839506172839,0,0,0.06172839506172839,91.35802469135801,0)" xlink:href="#aT"/></g><g id="u"><use transform="matrix(0.06172839506172839,0,0,0.06172839506172839,0,0)" xlink:href="#aR"/><use transform="matrix(0.06172839506172839,0,0,0.06172839506172839,14.814814814814813,0)" xlink:href="#aS"/><use transform="matrix(0.06172839506172839,0,0,0.06172839506172839,32.09876543209876,0)" xlink:href="#aS"/><use transform="matrix(0.06172839506172839,0,0,0.06172839506172839,49.38271604938271,0)" xlink:href="#aA"/></g><path d="M63-220v92h138v28H63V0H30v-248h175v28H63" id="bd"/><g id="v"><use transform="matrix(0.06172839506172839,0,0,0.06172839506172839,0,0)" xlink:href="#bd"/><use transform="matrix(0.06172839506172839,0,0,0.06172839506172839,13.518518518518517,0)" xlink:href="#as"/></g><g id="w"><use transform="matrix(0.06172839506172839,0,0,0.06172839506172839,0,0)" xlink:href="#aZ"/><use transform="matrix(0.06172839506172839,0,0,0.06172839506172839,15.987654320987653,0)" xlink:href="#aP"/><use transform="matrix(0.06172839506172839,0,0,0.06172839506172839,28.333333333333332,0)" xlink:href="#ay"/><use transform="matrix(0.06172839506172839,0,0,0.06172839506172839,34.50617283950617,0)" xlink:href="#aT"/><use transform="matrix(0.06172839506172839,0,0,0.06172839506172839,50.49382716049382,0)" xlink:href="#aV"/></g><g id="x"><use transform="matrix(0.06172839506172839,0,0,0.06172839506172839,0,0)" xlink:href="#aM"/><use transform="matrix(0.06172839506172839,0,0,0.06172839506172839,12.345679012345679,0)" xlink:href="#aL"/><use transform="matrix(0.06172839506172839,0,0,0.06172839506172839,17.22222222222222,0)" xlink:href="#aC"/><use transform="matrix(0.06172839506172839,0,0,0.06172839506172839,29.5679012345679,0)" xlink:href="#aU"/><use transform="matrix(0.06172839506172839,0,0,0.06172839506172839,40.67901234567901,0)" xlink:href="#ap"/></g><g id="y"><use transform="matrix(0.06172839506172839,0,0,0.06172839506172839,0,0)" xlink:href="#aB"/><use transform="matrix(0.06172839506172839,0,0,0.06172839506172839,12.345679012345679,0)" xlink:href="#aC"/><use transform="matrix(0.06172839506172839,0,0,0.06172839506172839,24.691358024691358,0)" xlink:href="#aD"/><use transform="matrix(0.06172839506172839,0,0,0.06172839506172839,43.148148148148145,0)" xlink:href="#ap"/></g><g id="z"><use transform="matrix(0.06172839506172839,0,0,0.06172839506172839,0,0)" xlink:href="#au"/><use transform="matrix(0.06172839506172839,0,0,0.06172839506172839,12.345679012345679,0)" xlink:href="#ap"/><use transform="matrix(0.06172839506172839,0,0,0.06172839506172839,24.691358024691358,0)" xlink:href="#ao"/><use transform="matrix(0.06172839506172839,0,0,0.06172839506172839,35.80246913580247,0)" xlink:href="#aU"/><use transform="matrix(0.06172839506172839,0,0,0.06172839506172839,46.91358024691358,0)" xlink:href="#aq"/><use transform="matrix(0.06172839506172839,0,0,0.06172839506172839,54.25925925925926,0)" xlink:href="#at"/><use transform="matrix(0.06172839506172839,0,0,0.06172839506172839,59.135802469135804,0)" xlink:href="#aM"/><use transform="matrix(0.06172839506172839,0,0,0.06172839506172839,71.48148148148148,0)" xlink:href="#aQ"/><use transform="matrix(0.06172839506172839,0,0,0.06172839506172839,77.65432098765432,0)" xlink:href="#at"/><use transform="matrix(0.06172839506172839,0,0,0.06172839506172839,82.53086419753086,0)" xlink:href="#aO"/><use transform="matrix(0.06172839506172839,0,0,0.06172839506172839,94.87654320987654,0)" xlink:href="#aB"/></g><path d="M195 0l-74-108L45 0H8l94-129-87-119h37l69 98 67-98h37l-84 118L233 0h-38" id="be"/><g id="A"><use transform="matrix(0.06172839506172839,0,0,0.06172839506172839,0,0)" xlink:href="#aV"/><use transform="matrix(0.06172839506172839,0,0,0.06172839506172839,13.518518518518517,0)" xlink:href="#aw"/><use transform="matrix(0.06172839506172839,0,0,0.06172839506172839,28.33333333333333,0)" xlink:href="#be"/><use transform="matrix(0.06172839506172839,0,0,0.06172839506172839,43.14814814814814,0)" xlink:href="#aV"/></g><g id="B"><use transform="matrix(0.06172839506172839,0,0,0.06172839506172839,0,0)" xlink:href="#bc"/><use transform="matrix(0.06172839506172839,0,0,0.06172839506172839,11.11111111111111,0)" xlink:href="#at"/><use transform="matrix(0.06172839506172839,0,0,0.06172839506172839,15.987654320987653,0)" xlink:href="#ao"/><use transform="matrix(0.06172839506172839,0,0,0.06172839506172839,27.098765432098766,0)" xlink:href="#at"/><use transform="matrix(0.06172839506172839,0,0,0.06172839506172839,31.975308641975307,0)" xlink:href="#aQ"/></g><g id="C"><use transform="matrix(0.06172839506172839,0,0,0.06172839506172839,0,0)" xlink:href="#ao"/><use transform="matrix(0.06172839506172839,0,0,0.06172839506172839,11.11111111111111,0)" xlink:href="#aQ"/><use transform="matrix(0.06172839506172839,0,0,0.06172839506172839,17.28395061728395,0)" xlink:href="#aC"/><use transform="matrix(0.06172839506172839,0,0,0.06172839506172839,29.629629629629626,0)" xlink:href="#aq"/><use transform="matrix(0.06172839506172839,0,0,0.06172839506172839,36.9753086419753,0)" xlink:href="#aQ"/><use transform="matrix(0.06172839506172839,0,0,0.06172839506172839,43.148148148148145,0)" xlink:href="#aP"/><use transform="matrix(0.06172839506172839,0,0,0.06172839506172839,55.49382716049382,0)" xlink:href="#aQ"/><use transform="matrix(0.06172839506172839,0,0,0.06172839506172839,61.666666666666664,0)" xlink:href="#at"/><use transform="matrix(0.06172839506172839,0,0,0.06172839506172839,66.5432098765432,0)" xlink:href="#aD"/><use transform="matrix(0.06172839506172839,0,0,0.06172839506172839,84.99999999999999,0)" xlink:href="#ap"/></g><g id="D"><use transform="matrix(0.06172839506172839,0,0,0.06172839506172839,0,0)" xlink:href="#ap"/><use transform="matrix(0.06172839506172839,0,0,0.06172839506172839,12.345679012345679,0)" xlink:href="#aB"/><use transform="matrix(0.06172839506172839,0,0,0.06172839506172839,24.691358024691358,0)" xlink:href="#au"/><use transform="matrix(0.06172839506172839,0,0,0.06172839506172839,37.03703703703704,0)" xlink:href="#aP"/><use transform="matrix(0.06172839506172839,0,0,0.06172839506172839,49.382716049382715,0)" xlink:href="#aQ"/><use transform="matrix(0.06172839506172839,0,0,0.06172839506172839,55.55555555555556,0)" xlink:href="#at"/><use transform="matrix(0.06172839506172839,0,0,0.06172839506172839,60.4320987654321,0)" xlink:href="#aD"/><use transform="matrix(0.06172839506172839,0,0,0.06172839506172839,78.88888888888889,0)" xlink:href="#ap"/></g><g id="E"><use transform="matrix(0.06172839506172839,0,0,0.06172839506172839,0,0)" xlink:href="#at"/><use transform="matrix(0.06172839506172839,0,0,0.06172839506172839,4.876543209876543,0)" xlink:href="#aQ"/><use transform="matrix(0.06172839506172839,0,0,0.06172839506172839,11.049382716049383,0)" xlink:href="#at"/><use transform="matrix(0.06172839506172839,0,0,0.06172839506172839,15.925925925925926,0)" xlink:href="#aB"/><use transform="matrix(0.06172839506172839,0,0,0.06172839506172839,28.271604938271604,0)" xlink:href="#ap"/><use transform="matrix(0.06172839506172839,0,0,0.06172839506172839,40.617283950617285,0)" xlink:href="#aq"/><use transform="matrix(0.06172839506172839,0,0,0.06172839506172839,47.96296296296296,0)" xlink:href="#aC"/><use transform="matrix(0.06172839506172839,0,0,0.06172839506172839,60.30864197530864,0)" xlink:href="#aq"/><use transform="matrix(0.06172839506172839,0,0,0.06172839506172839,67.65432098765432,0)" xlink:href="#aX"/><use transform="matrix(0.06172839506172839,0,0,0.06172839506172839,78.76543209876543,0)" xlink:href="#aP"/><use transform="matrix(0.06172839506172839,0,0,0.06172839506172839,91.11111111111111,0)" xlink:href="#at"/><use transform="matrix(0.06172839506172839,0,0,0.06172839506172839,95.98765432098766,0)" xlink:href="#au"/></g><g id="F"><use transform="matrix(0.06172839506172839,0,0,0.06172839506172839,0,0)" xlink:href="#aQ"/><use transform="matrix(0.06172839506172839,0,0,0.06172839506172839,6.172839506172839,0)" xlink:href="#aq"/><use transform="matrix(0.06172839506172839,0,0,0.06172839506172839,13.518518518518519,0)" xlink:href="#aC"/><use transform="matrix(0.06172839506172839,0,0,0.06172839506172839,25.864197530864196,0)" xlink:href="#aB"/><use transform="matrix(0.06172839506172839,0,0,0.06172839506172839,38.20987654320987,0)" xlink:href="#ao"/><use transform="matrix(0.06172839506172839,0,0,0.06172839506172839,49.32098765432099,0)" xlink:href="#aM"/><use transform="matrix(0.06172839506172839,0,0,0.06172839506172839,61.666666666666664,0)" xlink:href="#aO"/><use transform="matrix(0.06172839506172839,0,0,0.06172839506172839,74.01234567901234,0)" xlink:href="#aq"/><use transform="matrix(0.06172839506172839,0,0,0.06172839506172839,81.35802469135803,0)" xlink:href="#aQ"/><use transform="matrix(0.06172839506172839,0,0,0.06172839506172839,87.53086419753086,0)" xlink:href="#aP"/><use transform="matrix(0.06172839506172839,0,0,0.06172839506172839,99.87654320987654,0)" xlink:href="#at"/><use transform="matrix(0.06172839506172839,0,0,0.06172839506172839,104.75308641975309,0)" xlink:href="#au"/></g><g id="G"><use transform="matrix(0.06172839506172839,0,0,0.06172839506172839,0,0)" xlink:href="#bd"/><use transform="matrix(0.06172839506172839,0,0,0.06172839506172839,13.518518518518517,0)" xlink:href="#as"/></g><g id="H"><use transform="matrix(0.06172839506172839,0,0,0.06172839506172839,0,0)" xlink:href="#aM"/><use transform="matrix(0.06172839506172839,0,0,0.06172839506172839,12.345679012345679,0)" xlink:href="#aL"/><use transform="matrix(0.06172839506172839,0,0,0.06172839506172839,17.22222222222222,0)" xlink:href="#aC"/><use transform="matrix(0.06172839506172839,0,0,0.06172839506172839,29.5679012345679,0)" xlink:href="#aU"/><use transform="matrix(0.06172839506172839,0,0,0.06172839506172839,40.67901234567901,0)" xlink:href="#ap"/><use transform="matrix(0.06172839506172839,0,0,0.06172839506172839,53.02469135802469,0)" xlink:href="#aP"/><use transform="matrix(0.06172839506172839,0,0,0.06172839506172839,65.37037037037037,0)" xlink:href="#at"/><use transform="matrix(0.06172839506172839,0,0,0.06172839506172839,70.24691358024691,0)" xlink:href="#au"/></g><g id="I"><use transform="matrix(0.06172839506172839,0,0,0.06172839506172839,0,0)" xlink:href="#aZ"/><use transform="matrix(0.06172839506172839,0,0,0.06172839506172839,15.987654320987653,0)" xlink:href="#aP"/><use transform="matrix(0.06172839506172839,0,0,0.06172839506172839,28.333333333333332,0)" xlink:href="#ay"/><use transform="matrix(0.06172839506172839,0,0,0.06172839506172839,34.50617283950617,0)" xlink:href="#aT"/><use transform="matrix(0.06172839506172839,0,0,0.06172839506172839,50.49382716049382,0)" xlink:href="#aV"/></g><g id="J"><use transform="matrix(0.06172839506172839,0,0,0.06172839506172839,0,0)" xlink:href="#aQ"/><use transform="matrix(0.06172839506172839,0,0,0.06172839506172839,6.172839506172839,0)" xlink:href="#aq"/><use transform="matrix(0.06172839506172839,0,0,0.06172839506172839,13.518518518518519,0)" xlink:href="#aC"/><use transform="matrix(0.06172839506172839,0,0,0.06172839506172839,25.864197530864196,0)" xlink:href="#aB"/><use transform="matrix(0.06172839506172839,0,0,0.06172839506172839,38.20987654320987,0)" xlink:href="#ao"/><use transform="matrix(0.06172839506172839,0,0,0.06172839506172839,49.32098765432099,0)" xlink:href="#aM"/><use transform="matrix(0.06172839506172839,0,0,0.06172839506172839,61.666666666666664,0)" xlink:href="#aO"/><use transform="matrix(0.06172839506172839,0,0,0.06172839506172839,74.01234567901234,0)" xlink:href="#aq"/><use transform="matrix(0.06172839506172839,0,0,0.06172839506172839,81.35802469135803,0)" xlink:href="#aQ"/></g><g id="K"><use transform="matrix(0.06172839506172839,0,0,0.06172839506172839,0,0)" xlink:href="#aQ"/><use transform="matrix(0.06172839506172839,0,0,0.06172839506172839,6.172839506172839,0)" xlink:href="#aX"/><use transform="matrix(0.06172839506172839,0,0,0.06172839506172839,17.28395061728395,0)" xlink:href="#aM"/><use transform="matrix(0.06172839506172839,0,0,0.06172839506172839,29.629629629629626,0)" xlink:href="#ap"/></g><path d="M177-190C167-65 218 103 67 71c-23-6-38-20-44-43l32-5c15 47 100 32 89-28v-30C133-14 115 1 83 1 29 1 15-40 15-95c0-56 16-97 71-98 29-1 48 16 59 35 1-10 0-23 2-32h30zM94-22c36 0 50-32 50-73 0-42-14-75-50-75-39 0-46 34-46 75s6 73 46 73" id="bf"/><g id="L"><use transform="matrix(0.06172839506172839,0,0,0.06172839506172839,0,0)" xlink:href="#aM"/><use transform="matrix(0.06172839506172839,0,0,0.06172839506172839,12.345679012345679,0)" xlink:href="#aL"/><use transform="matrix(0.06172839506172839,0,0,0.06172839506172839,17.22222222222222,0)" xlink:href="#aC"/><use transform="matrix(0.06172839506172839,0,0,0.06172839506172839,29.5679012345679,0)" xlink:href="#aU"/><use transform="matrix(0.06172839506172839,0,0,0.06172839506172839,40.67901234567901,0)" xlink:href="#ap"/><use transform="matrix(0.06172839506172839,0,0,0.06172839506172839,53.02469135802469,0)" xlink:href="#aP"/><use transform="matrix(0.06172839506172839,0,0,0.06172839506172839,65.37037037037037,0)" xlink:href="#at"/><use transform="matrix(0.06172839506172839,0,0,0.06172839506172839,70.24691358024691,0)" xlink:href="#aD"/><use transform="matrix(0.06172839506172839,0,0,0.06172839506172839,88.7037037037037,0)" xlink:href="#bf"/></g><path d="M106-169C34-169 62-67 57 0H25v-261h32l-1 103c12-21 28-36 61-36 89 0 53 116 60 194h-32v-121c2-32-8-49-39-48" id="bg"/><g id="M"><use transform="matrix(0.06172839506172839,0,0,0.06172839506172839,0,0)" xlink:href="#at"/><use transform="matrix(0.06172839506172839,0,0,0.06172839506172839,4.876543209876543,0)" xlink:href="#aD"/><use transform="matrix(0.06172839506172839,0,0,0.06172839506172839,23.33333333333333,0)" xlink:href="#bf"/><use transform="matrix(0.06172839506172839,0,0,0.06172839506172839,35.679012345679006,0)" xlink:href="#aP"/><use transform="matrix(0.06172839506172839,0,0,0.06172839506172839,48.02469135802468,0)" xlink:href="#aM"/><use transform="matrix(0.06172839506172839,0,0,0.06172839506172839,60.37037037037036,0)" xlink:href="#aC"/><use transform="matrix(0.06172839506172839,0,0,0.06172839506172839,72.71604938271604,0)" xlink:href="#aQ"/><use transform="matrix(0.06172839506172839,0,0,0.06172839506172839,78.88888888888887,0)" xlink:href="#bg"/></g><g id="N"><use transform="matrix(0.06172839506172839,0,0,0.06172839506172839,0,0)" xlink:href="#aU"/><use transform="matrix(0.06172839506172839,0,0,0.06172839506172839,11.11111111111111,0)" xlink:href="#aq"/><use transform="matrix(0.06172839506172839,0,0,0.06172839506172839,18.45679012345679,0)" xlink:href="#ap"/><use transform="matrix(0.06172839506172839,0,0,0.06172839506172839,30.80246913580247,0)" xlink:href="#aC"/><use transform="matrix(0.06172839506172839,0,0,0.06172839506172839,43.148148148148145,0)" xlink:href="#aQ"/><use transform="matrix(0.06172839506172839,0,0,0.06172839506172839,49.32098765432099,0)" xlink:href="#ap"/><use transform="matrix(0.06172839506172839,0,0,0.06172839506172839,61.666666666666664,0)" xlink:href="#au"/><use transform="matrix(0.06172839506172839,0,0,0.06172839506172839,74.01234567901234,0)" xlink:href="#aP"/><use transform="matrix(0.06172839506172839,0,0,0.06172839506172839,86.35802469135803,0)" xlink:href="#aC"/><use transform="matrix(0.06172839506172839,0,0,0.06172839506172839,98.70370370370371,0)" xlink:href="#aQ"/></g><g id="O"><use transform="matrix(0.06172839506172839,0,0,0.06172839506172839,0,0)" xlink:href="#aV"/><use transform="matrix(0.06172839506172839,0,0,0.06172839506172839,13.518518518518517,0)" xlink:href="#ay"/><use transform="matrix(0.06172839506172839,0,0,0.06172839506172839,19.691358024691358,0)" xlink:href="#aW"/><use transform="matrix(0.06172839506172839,0,0,0.06172839506172839,38.148148148148145,0)" xlink:href="#aw"/><use transform="matrix(0.06172839506172839,0,0,0.06172839506172839,52.96296296296296,0)" xlink:href="#av"/><use transform="matrix(0.06172839506172839,0,0,0.06172839506172839,67.77777777777777,0)" xlink:href="#aV"/><use transform="matrix(0.06172839506172839,0,0,0.06172839506172839,79.62962962962962,0)" xlink:href="#az"/><use transform="matrix(0.06172839506172839,0,0,0.06172839506172839,94.44444444444443,0)" xlink:href="#aW"/><use transform="matrix(0.06172839506172839,0,0,0.06172839506172839,112.90123456790121,0)" xlink:href="#ar"/></g><g id="P"><use transform="matrix(0.06172839506172839,0,0,0.06172839506172839,0,0)" xlink:href="#aD"/><use transform="matrix(0.06172839506172839,0,0,0.06172839506172839,18.456790123456788,0)" xlink:href="#ap"/><use transform="matrix(0.06172839506172839,0,0,0.06172839506172839,30.80246913580247,0)" xlink:href="#aD"/><use transform="matrix(0.06172839506172839,0,0,0.06172839506172839,49.25925925925925,0)" xlink:href="#aO"/></g><g id="Q"><use transform="matrix(0.06172839506172839,0,0,0.06172839506172839,0,0)" xlink:href="#aU"/><use transform="matrix(0.06172839506172839,0,0,0.06172839506172839,11.11111111111111,0)" xlink:href="#aO"/><use transform="matrix(0.06172839506172839,0,0,0.06172839506172839,23.45679012345679,0)" xlink:href="#aB"/><use transform="matrix(0.06172839506172839,0,0,0.06172839506172839,35.80246913580247,0)" xlink:href="#aQ"/><use transform="matrix(0.06172839506172839,0,0,0.06172839506172839,41.97530864197531,0)" xlink:href="#ap"/><use transform="matrix(0.06172839506172839,0,0,0.06172839506172839,54.32098765432099,0)" xlink:href="#aB"/><use transform="matrix(0.06172839506172839,0,0,0.06172839506172839,66.66666666666667,0)" xlink:href="#aQ"/></g><g id="R"><use transform="matrix(0.06172839506172839,0,0,0.06172839506172839,0,0)" xlink:href="#bc"/><use transform="matrix(0.06172839506172839,0,0,0.06172839506172839,11.11111111111111,0)" xlink:href="#at"/><use transform="matrix(0.06172839506172839,0,0,0.06172839506172839,15.987654320987653,0)" xlink:href="#ao"/><use transform="matrix(0.06172839506172839,0,0,0.06172839506172839,27.098765432098766,0)" xlink:href="#at"/><use transform="matrix(0.06172839506172839,0,0,0.06172839506172839,31.975308641975307,0)" xlink:href="#aQ"/><use transform="matrix(0.06172839506172839,0,0,0.06172839506172839,38.14814814814815,0)" xlink:href="#aP"/><use transform="matrix(0.06172839506172839,0,0,0.06172839506172839,50.49382716049383,0)" xlink:href="#at"/><use transform="matrix(0.06172839506172839,0,0,0.06172839506172839,55.370370370370374,0)" xlink:href="#au"/></g><g id="S"><use transform="matrix(0.06172839506172839,0,0,0.06172839506172839,0,0)" xlink:href="#an"/><use transform="matrix(0.06172839506172839,0,0,0.06172839506172839,12.345679012345679,0)" xlink:href="#ao"/><use transform="matrix(0.06172839506172839,0,0,0.06172839506172839,23.45679012345679,0)" xlink:href="#ap"/><use transform="matrix(0.06172839506172839,0,0,0.06172839506172839,35.80246913580247,0)" xlink:href="#aq"/><use transform="matrix(0.06172839506172839,0,0,0.06172839506172839,43.148148148148145,0)" xlink:href="#aP"/><use transform="matrix(0.06172839506172839,0,0,0.06172839506172839,55.49382716049382,0)" xlink:href="#at"/><use transform="matrix(0.06172839506172839,0,0,0.06172839506172839,60.37037037037037,0)" xlink:href="#au"/></g><g id="T"><use transform="matrix(0.06172839506172839,0,0,0.06172839506172839,0,0)" xlink:href="#aD"/><use transform="matrix(0.06172839506172839,0,0,0.06172839506172839,18.456790123456788,0)" xlink:href="#ap"/><use transform="matrix(0.06172839506172839,0,0,0.06172839506172839,30.80246913580247,0)" xlink:href="#aD"/><use transform="matrix(0.06172839506172839,0,0,0.06172839506172839,49.25925925925925,0)" xlink:href="#aO"/><use transform="matrix(0.06172839506172839,0,0,0.06172839506172839,61.60493827160493,0)" xlink:href="#aP"/><use transform="matrix(0.06172839506172839,0,0,0.06172839506172839,73.9506172839506,0)" xlink:href="#at"/><use transform="matrix(0.06172839506172839,0,0,0.06172839506172839,78.82716049382715,0)" xlink:href="#aD"/><use transform="matrix(0.06172839506172839,0,0,0.06172839506172839,97.28395061728394,0)" xlink:href="#bf"/></g><g id="U"><use transform="matrix(0.06172839506172839,0,0,0.06172839506172839,0,0)" xlink:href="#an"/><use transform="matrix(0.06172839506172839,0,0,0.06172839506172839,12.345679012345679,0)" xlink:href="#aM"/><use transform="matrix(0.06172839506172839,0,0,0.06172839506172839,24.691358024691358,0)" xlink:href="#au"/><use transform="matrix(0.06172839506172839,0,0,0.06172839506172839,37.03703703703704,0)" xlink:href="#aC"/><use transform="matrix(0.06172839506172839,0,0,0.06172839506172839,49.382716049382715,0)" xlink:href="#aQ"/><use transform="matrix(0.06172839506172839,0,0,0.06172839506172839,55.55555555555556,0)" xlink:href="#ap"/><use transform="matrix(0.06172839506172839,0,0,0.06172839506172839,67.90123456790124,0)" xlink:href="#au"/><use transform="matrix(0.06172839506172839,0,0,0.06172839506172839,80.24691358024693,0)" xlink:href="#aP"/><use transform="matrix(0.06172839506172839,0,0,0.06172839506172839,92.59259259259261,0)" xlink:href="#aC"/><use transform="matrix(0.06172839506172839,0,0,0.06172839506172839,104.9382716049383,0)" xlink:href="#aQ"/></g><g id="V"><use transform="matrix(0.06172839506172839,0,0,0.06172839506172839,0,0)" xlink:href="#aD"/><use transform="matrix(0.06172839506172839,0,0,0.06172839506172839,18.456790123456788,0)" xlink:href="#ap"/><use transform="matrix(0.06172839506172839,0,0,0.06172839506172839,30.80246913580247,0)" xlink:href="#aD"/><use transform="matrix(0.06172839506172839,0,0,0.06172839506172839,49.25925925925925,0)" xlink:href="#aO"/><use transform="matrix(0.06172839506172839,0,0,0.06172839506172839,61.60493827160493,0)" xlink:href="#aP"/><use transform="matrix(0.06172839506172839,0,0,0.06172839506172839,73.9506172839506,0)" xlink:href="#at"/><use transform="matrix(0.06172839506172839,0,0,0.06172839506172839,78.82716049382715,0)" xlink:href="#au"/></g><g id="W"><use transform="matrix(0.06172839506172839,0,0,0.06172839506172839,0,0)" xlink:href="#aQ"/><use transform="matrix(0.06172839506172839,0,0,0.06172839506172839,6.172839506172839,0)" xlink:href="#aC"/><use transform="matrix(0.06172839506172839,0,0,0.06172839506172839,18.51851851851852,0)" xlink:href="#bf"/></g><path d="M101-234c-31-9-42 10-38 44h38v23H63V0H32v-167H5v-23h27c-7-52 17-82 69-68v24" id="bh"/><g id="X"><use transform="matrix(0.06172839506172839,0,0,0.06172839506172839,0,0)" xlink:href="#an"/><use transform="matrix(0.06172839506172839,0,0,0.06172839506172839,12.345679012345679,0)" xlink:href="#ao"/><use transform="matrix(0.06172839506172839,0,0,0.06172839506172839,23.45679012345679,0)" xlink:href="#ap"/><use transform="matrix(0.06172839506172839,0,0,0.06172839506172839,35.80246913580247,0)" xlink:href="#aq"/><use transform="matrix(0.06172839506172839,0,0,0.06172839506172839,43.148148148148145,0)" xlink:href="#aP"/><use transform="matrix(0.06172839506172839,0,0,0.06172839506172839,55.49382716049382,0)" xlink:href="#au"/><use transform="matrix(0.06172839506172839,0,0,0.06172839506172839,67.8395061728395,0)" xlink:href="#ap"/><use transform="matrix(0.06172839506172839,0,0,0.06172839506172839,80.18518518518519,0)" xlink:href="#bh"/><use transform="matrix(0.06172839506172839,0,0,0.06172839506172839,86.35802469135803,0)" xlink:href="#at"/><use transform="matrix(0.06172839506172839,0,0,0.06172839506172839,91.23456790123457,0)" xlink:href="#aB"/><use transform="matrix(0.06172839506172839,0,0,0.06172839506172839,103.58024691358025,0)" xlink:href="#ap"/><use transform="matrix(0.06172839506172839,0,0,0.06172839506172839,115.92592592592594,0)" xlink:href="#au"/></g><g id="Y"><use transform="matrix(0.06172839506172839,0,0,0.06172839506172839,0,0)" xlink:href="#at"/><use transform="matrix(0.06172839506172839,0,0,0.06172839506172839,4.876543209876543,0)" xlink:href="#aQ"/><use transform="matrix(0.06172839506172839,0,0,0.06172839506172839,11.049382716049383,0)" xlink:href="#at"/><use transform="matrix(0.06172839506172839,0,0,0.06172839506172839,15.925925925925926,0)" xlink:href="#aB"/><use transform="matrix(0.06172839506172839,0,0,0.06172839506172839,28.271604938271604,0)" xlink:href="#ap"/><use transform="matrix(0.06172839506172839,0,0,0.06172839506172839,40.617283950617285,0)" xlink:href="#aq"/><use transform="matrix(0.06172839506172839,0,0,0.06172839506172839,47.96296296296296,0)" xlink:href="#aC"/><use transform="matrix(0.06172839506172839,0,0,0.06172839506172839,60.30864197530864,0)" xlink:href="#aq"/><use transform="matrix(0.06172839506172839,0,0,0.06172839506172839,67.65432098765432,0)" xlink:href="#aX"/><use transform="matrix(0.06172839506172839,0,0,0.06172839506172839,78.76543209876543,0)" xlink:href="#aP"/><use transform="matrix(0.06172839506172839,0,0,0.06172839506172839,91.11111111111111,0)" xlink:href="#aQ"/><use transform="matrix(0.06172839506172839,0,0,0.06172839506172839,97.28395061728395,0)" xlink:href="#aC"/><use transform="matrix(0.06172839506172839,0,0,0.06172839506172839,109.62962962962963,0)" xlink:href="#bf"/></g><g id="Z"><use transform="matrix(0.06172839506172839,0,0,0.06172839506172839,0,0)" xlink:href="#aQ"/><use transform="matrix(0.06172839506172839,0,0,0.06172839506172839,6.172839506172839,0)" xlink:href="#aC"/><use transform="matrix(0.06172839506172839,0,0,0.06172839506172839,18.51851851851852,0)" xlink:href="#bf"/><use transform="matrix(0.06172839506172839,0,0,0.06172839506172839,30.864197530864196,0)" xlink:href="#aP"/><use transform="matrix(0.06172839506172839,0,0,0.06172839506172839,43.20987654320987,0)" xlink:href="#at"/><use transform="matrix(0.06172839506172839,0,0,0.06172839506172839,48.08641975308642,0)" xlink:href="#au"/></g><path fill="#333" d="M84 4C-5 8 30-112 23-190h32v120c0 31 7 50 39 49 72-2 45-101 50-169h31l1 190h-30c-1-10 1-25-2-33-11 22-28 36-60 37" id="bi"/><path fill="#333" d="M135-143c-3-34-86-38-87 0 15 53 115 12 119 90S17 21 10-45l28-5c4 36 97 45 98 0-10-56-113-15-118-90-4-57 82-63 122-42 12 7 21 19 24 35" id="bj"/><path fill="#333" d="M100-194c63 0 86 42 84 106H49c0 40 14 67 53 68 26 1 43-12 49-29l28 8c-11 28-37 45-77 45C44 4 14-33 15-96c1-61 26-98 85-98zm52 81c6-60-76-77-97-28-3 7-6 17-6 28h103" id="bk"/><path fill="#333" d="M114-163C36-179 61-72 57 0H25l-1-190h30c1 12-1 29 2 39 6-27 23-49 58-41v29" id="bl"/><path fill="#333" d="M-5 72V49h209v23H-5" id="bm"/><path fill="#333" d="M115-194c53 0 69 39 70 98 0 66-23 100-70 100C84 3 66-7 56-30L54 0H23l1-261h32v101c10-23 28-34 59-34zm-8 174c40 0 45-34 45-75 0-40-5-75-45-74-42 0-51 32-51 76 0 43 10 73 51 73" id="bn"/><path fill="#333" d="M96-169c-40 0-48 33-48 73s9 75 48 75c24 0 41-14 43-38l32 2c-6 37-31 61-74 61-59 0-76-41-82-99-10-93 101-131 147-64 4 7 5 14 7 22l-32 3c-4-21-16-35-41-35" id="bo"/><path fill="#333" d="M24-231v-30h32v30H24zM24 0v-190h32V0H24" id="bp"/><g id="aa"><use transform="matrix(0.06172839506172839,0,0,0.06172839506172839,0,0)" xlink:href="#bi"/><use transform="matrix(0.06172839506172839,0,0,0.06172839506172839,12.345679012345679,0)" xlink:href="#bj"/><use transform="matrix(0.06172839506172839,0,0,0.06172839506172839,23.45679012345679,0)" xlink:href="#bk"/><use transform="matrix(0.06172839506172839,0,0,0.06172839506172839,35.80246913580247,0)" xlink:href="#bl"/><use transform="matrix(0.06172839506172839,0,0,0.06172839506172839,43.148148148148145,0)" xlink:href="#bm"/><use transform="matrix(0.06172839506172839,0,0,0.06172839506172839,55.49382716049382,0)" xlink:href="#bj"/><use transform="matrix(0.06172839506172839,0,0,0.06172839506172839,66.60493827160494,0)" xlink:href="#bi"/><use transform="matrix(0.06172839506172839,0,0,0.06172839506172839,78.95061728395062,0)" xlink:href="#bn"/><use transform="matrix(0.06172839506172839,0,0,0.06172839506172839,91.2962962962963,0)" xlink:href="#bj"/><use transform="matrix(0.06172839506172839,0,0,0.06172839506172839,102.40740740740742,0)" xlink:href="#bo"/><use transform="matrix(0.06172839506172839,0,0,0.06172839506172839,113.51851851851853,0)" xlink:href="#bl"/><use transform="matrix(0.06172839506172839,0,0,0.06172839506172839,120.86419753086422,0)" xlink:href="#bp"/><use transform="matrix(0.06172839506172839,0,0,0.06172839506172839,125.74074074074076,0)" xlink:href="#bn"/><use transform="matrix(0.06172839506172839,0,0,0.06172839506172839,138.08641975308643,0)" xlink:href="#bk"/></g><path fill="#333" d="M30-248c87 1 191-15 191 75 0 78-77 80-158 76V0H30v-248zm33 125c57 0 124 11 124-50 0-59-68-47-124-48v98" id="bq"/><path fill="#333" d="M194 0L95-120 63-95V0H30v-248h33v124l119-124h40L117-140 236 0h-42" id="br"/><g id="ab"><use transform="matrix(0.06172839506172839,0,0,0.06172839506172839,0,0)" xlink:href="#bq"/><use transform="matrix(0.06172839506172839,0,0,0.06172839506172839,14.814814814814813,0)" xlink:href="#br"/></g><path fill="#333" d="M85-194c31 0 48 13 60 33l-1-100h32l1 261h-30c-2-10 0-23-3-31C134-8 116 4 85 4 32 4 16-35 15-94c0-66 23-100 70-100zm9 24c-40 0-46 34-46 75 0 40 6 74 45 74 42 0 51-32 51-76 0-42-9-74-50-73" id="bs"/><g id="ac"><use transform="matrix(0.06172839506172839,0,0,0.06172839506172839,0,0)" xlink:href="#bp"/><use transform="matrix(0.06172839506172839,0,0,0.06172839506172839,4.876543209876543,0)" xlink:href="#bs"/></g><path fill="#333" d="M127-220V0H93v-220H8v-28h204v28h-85" id="bt"/><path fill="#333" d="M179-190L93 31C79 59 56 82 12 73V49c39 6 53-20 64-50L1-190h34L92-34l54-156h33" id="bu"/><path fill="#333" d="M115-194c55 1 70 41 70 98S169 2 115 4C84 4 66-9 55-30l1 105H24l-1-265h31l2 30c10-21 28-34 59-34zm-8 174c40 0 45-34 45-75s-6-73-45-74c-42 0-51 32-51 76 0 43 10 73 51 73" id="bv"/><g id="ad"><use transform="matrix(0.06172839506172839,0,0,0.06172839506172839,0,0)" xlink:href="#bt"/><use transform="matrix(0.06172839506172839,0,0,0.06172839506172839,12.28395061728395,0)" xlink:href="#bu"/><use transform="matrix(0.06172839506172839,0,0,0.06172839506172839,23.39506172839506,0)" xlink:href="#bv"/><use transform="matrix(0.06172839506172839,0,0,0.06172839506172839,35.74074074074074,0)" xlink:href="#bk"/></g><path fill="#333" d="M63-220v92h138v28H63V0H30v-248h175v28H63" id="bw"/><g id="ae"><use transform="matrix(0.06172839506172839,0,0,0.06172839506172839,0,0)" xlink:href="#bw"/><use transform="matrix(0.06172839506172839,0,0,0.06172839506172839,13.518518518518517,0)" xlink:href="#br"/></g><g id="af"><use transform="matrix(0.06172839506172839,0,0,0.06172839506172839,0,0)" xlink:href="#bi"/><use transform="matrix(0.06172839506172839,0,0,0.06172839506172839,12.345679012345679,0)" xlink:href="#bj"/><use transform="matrix(0.06172839506172839,0,0,0.06172839506172839,23.45679012345679,0)" xlink:href="#bk"/><use transform="matrix(0.06172839506172839,0,0,0.06172839506172839,35.80246913580247,0)" xlink:href="#bl"/><use transform="matrix(0.06172839506172839,0,0,0.06172839506172839,43.148148148148145,0)" xlink:href="#bm"/><use transform="matrix(0.06172839506172839,0,0,0.06172839506172839,55.49382716049382,0)" xlink:href="#bp"/><use transform="matrix(0.06172839506172839,0,0,0.06172839506172839,60.37037037037037,0)" xlink:href="#bs"/></g><path fill="#333" d="M59-47c-2 24 18 29 38 22v24C64 9 27 4 27-40v-127H5v-23h24l9-43h21v43h35v23H59v120" id="bx"/><path fill="#333" d="M141-36C126-15 110 5 73 4 37 3 15-17 15-53c-1-64 63-63 125-63 3-35-9-54-41-54-24 1-41 7-42 31l-33-3c5-37 33-52 76-52 45 0 72 20 72 64v82c-1 20 7 32 28 27v20c-31 9-61-2-59-35zM48-53c0 20 12 33 32 33 41-3 63-29 60-74-43 2-92-5-92 41" id="by"/><path fill="#333" d="M177-190C167-65 218 103 67 71c-23-6-38-20-44-43l32-5c15 47 100 32 89-28v-30C133-14 115 1 83 1 29 1 15-40 15-95c0-56 16-97 71-98 29-1 48 16 59 35 1-10 0-23 2-32h30zM94-22c36 0 50-32 50-73 0-42-14-75-50-75-39 0-46 34-46 75s6 73 46 73" id="bz"/><g id="ag"><use transform="matrix(0.06172839506172839,0,0,0.06172839506172839,0,0)" xlink:href="#bx"/><use transform="matrix(0.06172839506172839,0,0,0.06172839506172839,6.172839506172839,0)" xlink:href="#by"/><use transform="matrix(0.06172839506172839,0,0,0.06172839506172839,18.51851851851852,0)" xlink:href="#bz"/><use transform="matrix(0.06172839506172839,0,0,0.06172839506172839,30.864197530864196,0)" xlink:href="#bm"/><use transform="matrix(0.06172839506172839,0,0,0.06172839506172839,43.20987654320987,0)" xlink:href="#bp"/><use transform="matrix(0.06172839506172839,0,0,0.06172839506172839,48.08641975308642,0)" xlink:href="#bs"/></g><path d="M115-194c53 0 69 39 70 98 0 66-23 100-70 100C84 3 66-7 56-30L54 0H23l1-261h32v101c10-23 28-34 59-34zm-8 174c40 0 45-34 45-75 0-40-5-75-45-74-42 0-51 32-51 76 0 43 10 73 51 73" id="bA"/><g id="ah"><use transform="matrix(0.06172839506172839,0,0,0.06172839506172839,0,0)" xlink:href="#bA"/><use transform="matrix(0.06172839506172839,0,0,0.06172839506172839,12.345679012345679,0)" xlink:href="#aO"/><use transform="matrix(0.06172839506172839,0,0,0.06172839506172839,24.691358024691358,0)" xlink:href="#aO"/><use transform="matrix(0.06172839506172839,0,0,0.06172839506172839,37.03703703703704,0)" xlink:href="#aY"/><use transform="matrix(0.06172839506172839,0,0,0.06172839506172839,48.14814814814815,0)" xlink:href="#aD"/><use transform="matrix(0.06172839506172839,0,0,0.06172839506172839,66.60493827160494,0)" xlink:href="#aC"/><use transform="matrix(0.06172839506172839,0,0,0.06172839506172839,78.95061728395062,0)" xlink:href="#aq"/><use transform="matrix(0.06172839506172839,0,0,0.06172839506172839,86.2962962962963,0)" xlink:href="#aY"/></g><g id="ai"><use transform="matrix(0.06172839506172839,0,0,0.06172839506172839,0,0)" xlink:href="#an"/><use transform="matrix(0.06172839506172839,0,0,0.06172839506172839,12.345679012345679,0)" xlink:href="#ao"/><use transform="matrix(0.06172839506172839,0,0,0.06172839506172839,23.45679012345679,0)" xlink:href="#ap"/><use transform="matrix(0.06172839506172839,0,0,0.06172839506172839,35.80246913580247,0)" xlink:href="#aq"/><use transform="matrix(0.06172839506172839,0,0,0.06172839506172839,43.148148148148145,0)" xlink:href="#aP"/><use transform="matrix(0.06172839506172839,0,0,0.06172839506172839,55.49382716049382,0)" xlink:href="#at"/><use transform="matrix(0.06172839506172839,0,0,0.06172839506172839,60.37037037037037,0)" xlink:href="#au"/></g><g id="aj"><use transform="matrix(0.06172839506172839,0,0,0.06172839506172839,0,0)" xlink:href="#aU"/><use transform="matrix(0.06172839506172839,0,0,0.06172839506172839,11.11111111111111,0)" xlink:href="#aO"/><use transform="matrix(0.06172839506172839,0,0,0.06172839506172839,23.45679012345679,0)" xlink:href="#aD"/><use transform="matrix(0.06172839506172839,0,0,0.06172839506172839,41.91358024691358,0)" xlink:href="#aD"/><use transform="matrix(0.06172839506172839,0,0,0.06172839506172839,60.37037037037037,0)" xlink:href="#ap"/><use transform="matrix(0.06172839506172839,0,0,0.06172839506172839,72.71604938271605,0)" xlink:href="#aB"/><use transform="matrix(0.06172839506172839,0,0,0.06172839506172839,85.06172839506173,0)" xlink:href="#aQ"/></g><g id="ak"><use transform="matrix(0.06172839506172839,0,0,0.06172839506172839,0,0)" xlink:href="#bc"/><use transform="matrix(0.06172839506172839,0,0,0.06172839506172839,11.11111111111111,0)" xlink:href="#at"/><use transform="matrix(0.06172839506172839,0,0,0.06172839506172839,15.987654320987653,0)" xlink:href="#ao"/><use transform="matrix(0.06172839506172839,0,0,0.06172839506172839,27.098765432098766,0)" xlink:href="#at"/><use transform="matrix(0.06172839506172839,0,0,0.06172839506172839,31.975308641975307,0)" xlink:href="#aQ"/><use transform="matrix(0.06172839506172839,0,0,0.06172839506172839,38.14814814814815,0)" xlink:href="#aP"/><use transform="matrix(0.06172839506172839,0,0,0.06172839506172839,50.49382716049383,0)" xlink:href="#aQ"/><use transform="matrix(0.06172839506172839,0,0,0.06172839506172839,56.66666666666667,0)" xlink:href="#aC"/><use transform="matrix(0.06172839506172839,0,0,0.06172839506172839,69.01234567901236,0)" xlink:href="#bf"/></g><g id="al"><use transform="matrix(0.06172839506172839,0,0,0.06172839506172839,0,0)" xlink:href="#ap"/><use transform="matrix(0.06172839506172839,0,0,0.06172839506172839,12.345679012345679,0)" xlink:href="#bc"/><use transform="matrix(0.06172839506172839,0,0,0.06172839506172839,23.45679012345679,0)" xlink:href="#ap"/><use transform="matrix(0.06172839506172839,0,0,0.06172839506172839,35.80246913580247,0)" xlink:href="#aB"/><use transform="matrix(0.06172839506172839,0,0,0.06172839506172839,48.148148148148145,0)" xlink:href="#aQ"/><use transform="matrix(0.06172839506172839,0,0,0.06172839506172839,54.32098765432099,0)" xlink:href="#aP"/><use transform="matrix(0.06172839506172839,0,0,0.06172839506172839,66.66666666666667,0)" xlink:href="#at"/><use transform="matrix(0.06172839506172839,0,0,0.06172839506172839,71.54320987654322,0)" xlink:href="#au"/></g><g id="am"><use transform="matrix(0.06172839506172839,0,0,0.06172839506172839,0,0)" xlink:href="#bc"/><use transform="matrix(0.06172839506172839,0,0,0.06172839506172839,11.11111111111111,0)" xlink:href="#at"/><use transform="matrix(0.06172839506172839,0,0,0.06172839506172839,15.987654320987653,0)" xlink:href="#ao"/><use transform="matrix(0.06172839506172839,0,0,0.06172839506172839,27.098765432098766,0)" xlink:href="#at"/><use transform="matrix(0.06172839506172839,0,0,0.06172839506172839,31.975308641975307,0)" xlink:href="#aQ"/><use transform="matrix(0.06172839506172839,0,0,0.06172839506172839,38.14814814814815,0)" xlink:href="#aP"/><use transform="matrix(0.06172839506172839,0,0,0.06172839506172839,50.49382716049383,0)" xlink:href="#at"/><use transform="matrix(0.06172839506172839,0,0,0.06172839506172839,55.370370370370374,0)" xlink:href="#au"/></g></defs></g></svg>